<?xml version="1.0" encoding="utf-8"?>
<!-- Generator: Adobe Illustrator 19.1.0, SVG Export Plug-In . SVG Version: 6.00 Build 0)  -->
<svg version="1.1" id="レイヤー_1" xmlns="http://www.w3.org/2000/svg" xmlns:xlink="http://www.w3.org/1999/xlink" x="0px"
	 y="0px" viewBox="0 0 256 100" style="enable-background:new 0 0 256 100;" xml:space="preserve">
<style type="text/css">
	.st0{display:none;}
	.st1{display:inline;}
	.st2{fill:#66CC00;}
	.st3{display:inline;fill:#666666;}
	.st4{font-family:'PresidentPlain';}
	.st5{font-size:30px;}
	.st6{display:inline;fill:none;stroke:#666666;stroke-miterlimit:10;}
	.st7{fill:#666666;}
	.st8{font-size:28px;}
	.st9{font-family:'Optima-Regular';}
	.st10{enable-background:new    ;}
	.st11{fill:#4B4B4B;}
	.st12{display:inline;fill:#4B4B4B;}
	.st13{fill:#CCCCCC;}
	.st14{fill:none;stroke:#FFFFFF;stroke-linecap:round;stroke-linejoin:round;stroke-miterlimit:10;}
</style>
<g id="レイヤー_5" class="st0">
	
		<image style="display:inline;overflow:visible;opacity:0.89;enable-background:new    ;" width="646" height="488" xlink:href="96B8CB3CD196206B.jpg"  transform="matrix(0.4157 0 0 0.4097 0 0)">
	</image>
</g>
<g id="狭い庭" class="st0">
	<g class="st1">
		<path class="st2" d="M390.7,26.8c0-0.3,0-0.6,0.1-0.9c-0.2,0.3-0.3,0.7-0.3,1C390.6,26.9,390.6,26.8,390.7,26.8z M391.2,27
			c0.2,0.1,0.4,0.2,0.4,0.4c0.4-0.2,0.1-0.6-0.3-0.7c-0.2-0.1-0.4,0-0.7,0.1c0,0.1,0,0.2,0,0.2C390.9,27,391.1,27,391.2,27z
			 M389.9,28l0.2-0.3c0-0.1,0-0.2,0-0.2C390,27.6,389.9,27.8,389.9,28z M390.1,27.4c0.1-0.1,0.3-0.2,0.4-0.3c0-0.1,0-0.1,0-0.2
			C390.3,27.1,390.1,27.2,390.1,27.4z M390.7,27c-0.1,0-0.1,0.1-0.2,0.1c0,0.5,0.2,0.8,0.6,0.7c0.4-0.1,0.5-0.3,0.5-0.5
			c-0.1,0-0.2,0.1-0.3,0.1C391,27.6,390.8,27.4,390.7,27z M393.5,25.8c-0.7,0.4-1.4-1-2.3-0.5c-0.2,0.1-0.4,0.4-0.5,0.6
			c0.1-0.1,0.2-0.2,0.3-0.3c0.8-0.5,1.6,0.9,2.3,0.5c0.2-0.1,0.4-0.4,0.5-0.7C393.8,25.6,393.6,25.7,393.5,25.8z M376.5-1.9
			c-0.1-0.2-0.1-0.5,0-0.7c-0.2,0.3-0.3,0.7-0.1,1c0.5,0.8,1.7,0.9,2,0.4c0-0.1,0.1-0.1,0.1-0.2C378-1,376.9-1.2,376.5-1.9z
			 M379-2.9C379-3,379-3,379-2.9c-0.1,0.1-0.1,0.2-0.2,0.3c-0.1,0.7,0.6,0.9,0.8,0.5c0-0.1,0-0.1,0-0.2C379.4-2.2,378.9-2.4,379-2.9
			z M374,6.3c0.3,0.6,1.6,1,2,0.1l0,0c-0.5,0.4-1.5,0.1-1.8-0.4s-0.1-1.8,0.4-2.8C373.9,4.1,373.7,5.8,374,6.3z M376.4,6.1
			c0.4-0.9-0.5-1.3-0.5-1.3l-0.3,0.3c0,0,0.9,0.4,0.5,1.3C376.2,6.4,376.3,6.3,376.4,6.1z M393.9,67.9L393.9,67.9
			c-0.4,0.2,0,0.6,0.3,0.6c0.1,0,0.2-0.1,0.2-0.3l0,0C394.2,68.2,394,68,393.9,67.9z M401.6,62.4c-0.2,0.1-0.3,0.3-0.4,0.5
			c0.1-0.1,0.1-0.1,0.2-0.2c0.8-0.5,1.7,0.5,1.7,1.2c0,0.1,0,0.2,0,0.2c0.1-0.2,0.2-0.4,0.2-0.5C403.3,62.9,402.4,61.8,401.6,62.4z
			 M401.2,64l0.1-0.3c0,0-0.3-0.5-0.1-0.9C400.8,63.4,401.2,64,401.2,64z M393.1,65.3c0.4,0.5,1,0.3,1,0.8v0.1
			c0.1-0.1,0.1-0.2,0.2-0.4c0.1-0.5-0.6-0.3-1-0.8c-0.1-0.1-0.1-0.2-0.1-0.2C392.9,64.9,392.8,65,393.1,65.3z M393.1,64.8
			c0.2-0.1,0.4-0.2,0.5-0.4c0,0,0.1-0.1,0.1-0.2C393.4,64.5,393,64.5,393.1,64.8z M393.6,66.8c0.1,0.3,0.4,0.6,0.6,0.7l0,0
			c-0.1,0-0.2,0-0.3,0c-0.1,0.1-0.1,0.2-0.1,0.3c0.1,0,0.3,0,0.5,0c0,0.1,0,0.1,0,0.2c0.1,0,0.1-0.1,0.1-0.2
			c0.4,0.1,0.8,0.4,0.8,0.4l0.2,0.1l-0.1-0.2c0,0-0.4-0.3-0.8-0.5c0-0.2,0-0.3-0.1-0.4c-0.2-0.2-0.6-0.5-0.6-0.7
			C393.7,66.7,393.6,66.7,393.6,66.8z M393.8,66.6L393.8,66.6c0.1-0.1,0.2-0.2,0.3-0.4C393.9,66.3,393.7,66.4,393.8,66.6z
			 M415.5,70.8c-0.1-0.3-0.2-0.4-0.2-0.4l1.9-2c0,0-4.2-1.1-4.7-0.6c-0.5,0.4-1,1.5-1.2,1.9c0,0,1.1,0.7,1.7,1.2
			c0.5,0.5,0.8,0.8,0.8,0.8s-1.6-1.2-2-1.5s-0.6-0.3-0.6-0.3l0,0v-0.1c-0.9-0.2-1.9-0.5-2.9-0.8c0-0.5-0.6-1.2-1.2-1.3
			c-0.7-0.1-1.6,0.2-1.6,0.2l-0.4,0.6c0,0,0.2,0.4,0.4,0.7c0.2,0.3,0.3,1,0.3,1s-0.3-0.6-0.4-1c-0.1-0.2-0.4-0.6-0.4-0.6l-1.3,2.4
			l1.2-2.5c0,0-0.3,0-0.7,0c-0.3,0-1.1,0.2-1.1,0.2s0.7-0.2,1.1-0.3c0.3-0.1,0.8-0.1,0.8-0.1l0.3-0.6c0,0-0.5-1.1-1-1.5
			s-1-0.5-1.4-0.1c-0.3,0.2-0.5,0.5-0.7,0.9c-0.6-0.2-1.1-0.4-1.7-0.7l0,0c1.2,0,2.5-1.2,2.7-2.2c-0.4,0.8-1.4,1.8-2.4,1.9
			c-0.3,0-1.2,0-1.2,0c-3.2-1.3-6.4-2.9-9.3-4.8c-0.1-0.3-0.1-0.5-0.1-0.5l-7.2-4.2l7.2,3.8c0,0,2.9-0.7,3.9-3.6c0.4-1,0-2-0.6-2.8
			s-2.1-2.3-2.1-2.3s0.2,0.9,0.1,2.1c-0.1,1.2-1.6,2.5-1.6,2.5s-4.3,0.1-5.4-0.3c-0.2-0.1-0.4-0.2-0.7-0.2c-1.2-1.5-2.5-3.8-3.8-6.8
			l0.7,0.8c0,0,1.2-2.9,1.5-4.3c0.3-1.4-0.7-2-1.2-2s-1.3,0-1.3,0s-1.1,1.9-2,2.9c-1.1,1.1-2.5,2.2-2.5,2.2s1.8-1.8,2.8-3.2
			c1-1.3,1.1-2.1,1.1-2.1s-0.7-1.9-2-1.5l0,0c-0.1-0.4-0.3-0.7-0.4-1.1c0.2,0.3,0.5,0.6,0.9,0.7c0.8,0,1,0.1,1,0.1l-0.7-1.7
			c0,0,0.9,0.3,1.5-0.1c0.6-0.3,1.4-0.9,1.4-0.9s-1-0.8-1.7-0.9c-0.7-0.1-1.3,0.1-1.3,0.1l0.6-1.7c0,0-1.4,0.4-1.7,0.4
			c-0.2,0.1-0.7,1.2-0.7,2c-0.1-0.2-0.2-0.5-0.2-0.7c0.9-1.5,1.6-3.2,0.7-4c-0.9-0.7-2.4-1.4-2.4-1.4s0,0,0,0.1
			c-0.1-0.2-0.1-0.4-0.2-0.6c0.2-0.7,0.6-3.1-0.3-4.2c-0.5-0.7-1.1-1.2-1.5-1.5c-0.1-0.3-0.2-0.5-0.2-0.8c0.5,0,1,0,1.4-0.1
			c0.5,0,0.8-0.2,0.8-0.2s-0.1-0.7-0.3-1.1c-0.2-0.4-0.4-0.5-0.4-0.5s0.9,0,2.2-0.4c1.2-0.4,2.2-2,2.2-2s-1.3-1.2-2.7-1.4
			c-1-0.2-2,0-2,0s0.1-0.7,0.1-1.2s-0.1-0.9-0.1-0.9s-1.6,0.3-2.7,0.9c-0.2,0.1-0.3,0.2-0.4,0.5c-0.1-0.5-0.3-1-0.4-1.5
			c0.3-0.3,0.7-0.6,1-0.9c1.1-1.2,2.9-4.3,2.9-4.3s0.2,0,1.2,0.1c0.9,0.1,2.8,1.7,2.8,1.7s0-0.8-0.2-1.7c-0.2-0.8-1.9-3.7-3.4-3.8
			c-1.5-0.2-3.1,0.9-3.1,0.9l-1.8,8.1l1.4-8c0,0-1.3-2-3.7-2.5c-0.2-0.5-0.3-1.1-0.5-1.6l2.3,0.8c0,0-0.9-5.7-1.7-6.2
			c-0.5-0.3-1.6-0.4-2.4-0.4c-0.2-0.5-0.3-0.9-0.4-1.4l0.2-1c0,0,0.7,0.5,1.5,0.6c0.7,0,1.8,0,1.8,0s-0.5-1-1.1-1.3
			s-1.3-0.5-1.3-0.5l1.4-0.8c0,0-1.5-0.4-1.8-0.4c-0.2,0-1,0.4-1.5,0.8c-0.1-0.3-0.2-0.5-0.3-0.8l-0.1-0.2l0,0
			c-0.1-0.3-0.2-0.6-0.4-0.9c-0.3-0.6-0.6-1.2-0.9-1.8c0.6-0.8,1.5-2.1,2-3.3c0.3-0.8-0.2-2.5-1.4-3.1c-1.1-0.6-2.9-0.4-2.9-0.4
			l-0.9,0.9c0,0,0.3,0.8,0.4,1.4c0.1,0.6,0.1,1.8,0.1,1.8s-0.1-1.2-0.3-1.9c-0.1-0.4-0.4-1.2-0.4-1.2l-3.5,3.5l3.3-3.8
			c0,0-0.6-0.2-1.1-0.3c-0.6-0.1-2-0.2-2-0.2s1.3,0,2,0c0.5,0,1.3,0.2,1.3,0.2l0.8-0.9c0,0-0.3-2.1-1-3.1c-0.6-0.9-1.4-1.3-2.4-0.9
			c-0.7,0.3-1.4,0.9-2,1.5c-4.2-3.7-8-5.7-8-5.7l-0.1,0.3c0,0,3.8,2.1,7.9,5.7c-0.2,0.2-0.4,0.4-0.6,0.6c-0.6,0.6-0.8,1.1-0.8,1.1
			s0.9,0.8,1.5,1c0.6,0.3,1,0.2,1,0.2s-1.2,0.9-2.3,2.8c-1.1,1.8-0.6,4.9-0.6,4.9s2.9,0.2,4.9-1c1.5-0.9,2.5-2.2,2.5-2.2
			s0.5,1,1.1,1.6s1,1,1,1s0.1-0.1,0.3-0.4c0.3,0.6,0.6,1.2,0.9,1.9c0,0.1,0.1,0.1,0.1,0.2c-0.5-0.4-1.2-0.9-1.9-0.4
			c-1,0.7-1.1,0.7-1.1,0.7l1.1,0.7c0,0-0.1,0.1-1.3,0.7c-1.2,0.6-2.4,0.4-2.4,0.4s2.7,0.9,3.4,0.8c0.8-0.1,1-0.2,1.3-0.4
			c0.2-0.2,0.9-0.9,1.2-1.2c0.1,0.1,0.1,0.3,0.2,0.4c-0.1,0.1-0.1,0.1-0.2,0.2c-0.4,0.5-0.2,0.8-0.2,0.8s-0.2,1,0.5,1.3
			c0.4,0.2,0.7,0.3,0.8,0.4c0.1,0.4,0.2,0.7,0.4,1.1c-0.2,0-0.3,0-0.4,0c0,0-0.3,1.8-0.6,2.7c-0.3,0.9-0.5,1.4-0.5,1.4
			s0.6-2.6,0.8-3.2c0.1-0.6,0.1-0.9,0.1-0.9s-2.1-1.9-2.7-2.1c-0.6-0.2-4,4.1-4,4.1l3.2,1.4c0,0-0.4,1.7-0.1,3s0.6,2.6,0.6,2.6
			s2.2-1.3,3.1-2.2s1.3-1.5,1.3-1.5l0.9,0.3c0.2,0.5,0.3,1.1,0.5,1.7c-0.2,0-0.4-0.1-0.7-0.1c-1.1,0-1.9,0.6-2.5,1.4
			s-1.5,2.7-1.5,2.7s0.8-0.4,2-0.8c1.2-0.3,2.9,0.8,2.9,0.8s1.4,4.1,1.4,5.2s-0.3,2.4-0.3,2.4s0.8-0.4,1.7-1.1
			c0.2,0.5,0.3,1.1,0.5,1.6c-0.1,0.4-0.2,0.9,0,1.2c0.1,0.3,0.4,0.6,0.6,0.9c0.1,0.3,0.2,0.6,0.2,0.8c0,0-1,1-1.8,0.8
			c0.3-0.1,0.4-0.4,0.5-0.6c-0.2,0.2-0.5,0.4-0.8,0.5l0,0c-0.6-0.4-0.6-0.9-0.5-1.2c-0.2,0.3-0.4,0.8,0.1,1.3c-0.1,0-0.1,0-0.2,0
			c-0.2-0.1-0.4-0.1-0.5-0.2l0.1-0.1v-0.1c-0.1,0.1-0.1,0.1-0.2,0.1c-0.2-0.2-0.2-0.4-0.2-0.6c0,0-0.1,0-0.1,0.1
			c-0.1,0.1-0.1,0.3,0,0.5c-0.1,0-0.2-0.1-0.3-0.1l-0.3-0.2l0.2,0.5c0.1,0.1,0.4,0.2,0.6,0.1c0.1,0.1,0.3,0.3,0.6,0.3
			c0.2,0,0.4,0,0.6,0c0.8,0.5,2.3-0.9,2.3-0.9v0.1c-0.2,0.4-0.5,1-0.5,1.4c-0.1,0.7,0.1,1.2,0.8,1.4c0.2,0.1,0.4,0.1,0.6,0.1
			c0.1,0.2,0.1,0.4,0.2,0.6c-0.3-0.2-0.4-0.3-0.4-0.3s-0.6,2.1-1.9,2.6c-1.4,0.5-3.1,0.5-3.1,0.5s0.2,2.4,1.3,3.3
			c1.1,0.9,1.8,1.3,1.8,1.3s-0.7,1.4-2,3.4c-1.2,2-3.4,4.7-3.4,4.7s3.7-0.1,6.2-1.1s3.3-1.9,3.3-1.9l0.4,2.7c0,0,0.8-1.8,1.7-3.3
			c0.4,1.2,0.8,2.4,1.3,3.6c-1.5,0.6-5.1,2.7-5.1,2.7l2.2,1.7c0,0-1,0.9-1.5,2.5s-0.6,2.3-1.3,2.7c-0.7,0.4-0.7,0.4-0.7,0.4
			s2.8-0.2,4.9-1.5s3.3-2.7,3.3-2.7l0.8,0.8c0.7,1.8,1.5,3.3,2.2,4.7c0,0-0.5,0.4-1.2,0.5s-1.6-0.8-1.7-1.2c0-0.1,0-0.2,0-0.3
			c-0.1,0.2-0.2,0.4-0.2,0.6c0.1,0.4,1,1.2,1.7,1.1c0.7-0.1,1.4-0.6,1.4-0.6c0.5,0.9,1,1.6,1.4,2.3c-0.6-0.3-1-0.5-1-0.5
			s0.3,2,1.1,3.4c0.8,1.4,3.2,4,3.2,4s-0.1,0.2-0.5,1.1c-0.4,0.9-2.5,2.2-2.5,2.2s0.8,0.2,1.6,0.3c0.9,0,4.1-0.6,4.7-2.1
			c0.3-0.8,0.3-1.6,0.3-2.3c1,0.7,2,1.3,3.1,1.9c0,0,0.3,0.5,0.3,0.8l0.1-0.1c0.1-0.1,0.2-0.4,0.2-0.4c2.7,1.4,5.4,2.6,8.1,3.6
			c-0.1,0.2-0.2,0.4-0.3,0.5c-0.2,0.4-0.2,0.7-0.2,0.7s0.6,0.3,1,0.3c0.4,0.1,0.6,0,0.6,0s-0.5,0.7-0.8,1.8
			c-0.3,1.1,0.4,2.7,0.4,2.7s1.6-0.3,2.4-1.3c0.7-0.7,1-1.5,1-1.5s0.4,0.5,0.9,0.7c0.4,0.2,0.7,0.4,0.7,0.4s0.5-1.2,0.7-2.3
			c0.9,0.3,1.8,0.5,2.6,0.7c-0.6,0.3-1.6,0.8-1.8,1c-0.3,0.3,1.7,4,1.7,4l1.9-1.8c0,0,1,0.8,2,1s2,0.3,2,0.3s-0.2-1.9-0.6-2.8
			c-0.1-0.2-0.2-0.4-0.3-0.6c6.8,1.4,8.1,0.8,8.1,0.8l0.1-0.3C423.9,71.6,422.6,72.2,415.5,70.8z M371.8,22l-0.7,0.1
			c0,0,0,0-0.1,0.1c-0.1-0.2-0.1-0.4-0.2-0.6c0.1,0.1,0.2,0.2,0.2,0.2l0.8-0.1c0,0,0.2-0.5,0.4-0.8c0.2-0.3,0.7-0.9,0.7-0.9
			s-0.4,0.6-0.6,1c-0.1,0.2-0.3,0.7-0.3,0.7l3-0.3l-3,0.5c0,0,0.2,0.3,0.4,0.6c0.2,0.3,0.8,0.8,0.8,0.8s-0.6-0.5-0.9-0.8
			C372.1,22.4,371.8,22,371.8,22z M371.9,36.6c-1.7,1.9-4.5,3.2-4.5,3.2s3.3-1.9,4.2-3.4c1.2-1.8,2-3.7,2.2-4.2
			c0.1,0.2,0.1,0.4,0.2,0.6C373.7,33.7,373.1,35.2,371.9,36.6z M379.6,51.7c0.5,0.2,0.3,0.8,0.3,0.8l0.1-0.3c0,0,0.2-0.5-0.3-0.8
			c-0.4-0.2-0.7,0.2-0.8,0.5C379.1,51.8,379.3,51.6,379.6,51.7z M367.7,22.5c0,0,0.1-0.1,0.1-0.2c0.2-0.4-0.3-0.7-0.5-0.5
			c0,0.1-0.1,0.1-0.1,0.2C367.4,21.9,367.7,22.1,367.7,22.5z M369.5,22.2c0,0.1,0,0.2,0,0.3c0.1-0.2,0.2-0.4,0.1-0.6
			c-0.2-0.6-1.1-0.8-1.3-0.5c-0.1,0.1-0.1,0.2-0.2,0.3c0,0,0,0,0-0.1C368.5,21.3,369.3,21.6,369.5,22.2z M431.9,64
			c0,0.6,0.6,1.4,0.6,1.4s0,0-0.2-0.3s0.1-1.2,0.1-1.2l0.1,0.4c0,0,0.2-0.3,0.2-0.8s-0.3-1-0.3-1S431.9,63.4,431.9,64z M384.1,49.5
			c-1.1,0.1-2.8,1.7-2.8,1.7l0.4,0.8c0,0,0.3,0.5,0.8,0.7c0.5,0.3,1,1,3.3,0.1s2.6-3,2.6-3s-0.6,0.1-1.5,1.2
			c-0.9,1.1-2.6,0.3-2.6,0.3l1.2-1.8C385.5,49.4,385.2,49.3,384.1,49.5z M437.8,63.9l0.2-0.3v-0.1C437.7,63.6,437.8,63.9,437.8,63.9
			z M418.9,50.5c-0.2,0.1-0.2,0.2-0.2,0.4l0,0c0.4-0.3,0.8,0.2,0.8,0.6v0.1c0.1-0.2,0.2-0.3,0.2-0.4
			C419.7,50.7,419.3,50.2,418.9,50.5z M439.6,65.4c-0.3-0.2-0.6-0.4-1.1-0.7c0,0,0.2-0.1,0.2-0.2c0.1-0.1,0.1-0.2,0.1-0.3
			c-0.3,0.2-1,0.1-1,0.1c-0.8-0.4-1.8-0.8-3.2-1.4c-1.7-0.7-3.8-1.8-6-3.1c0.1,0,0.2,0,0.2,0l-0.5-1.7c0,0,0.9-0.1,1.7-0.8
			c0.8-0.7,1.2-1,1.7-1s0.5,0,0.5,0s-1.5-0.9-3.1-1s-2.7,0.2-2.7,0.2l-0.3-1.8c0,0-1.7,1.1-2.4,1.7c-0.3,0.3-0.4,0.6-0.4,0.9
			c-1.8-1.2-3.5-2.5-5.2-3.8h0.1c0.1,0,0.1,0,0.2,0c0.6,0,1.1-0.7,1.3-1.1c-0.2,0.3-0.7,0.7-1.1,0.7c-0.6,0-1.2-0.3-1.2-0.3h-0.1
			c-0.6-0.5-1.2-1-1.8-1.4c-0.1-0.2-0.2-0.4-0.4-0.5c-0.2-0.1-0.3-0.2-0.5-0.3c-0.6-0.5-1.2-1.1-1.8-1.6c-0.2-0.4-0.6-0.9-1.1-1.3
			c-0.1-0.1-0.3-0.1-0.4-0.2c-0.1-0.1-0.2-0.2-0.3-0.3c-0.9-0.9-2-2.1-3.2-3.6c1.1-0.3,2.7-0.9,2.7-0.9l-1.4-2c0,0,0.8-0.8,1.1-1.7
			c0.3-0.9,0.5-1.8,0.5-1.8s-1.7,0-2.6,0.2s-1.3,0.4-1.3,0.4l-1.6-2c0,0-0.7,1.8-1,3c-0.3-0.4-0.6-0.8-0.9-1.2
			c0.3-0.7,0.6-1.7,0.7-2.6c0.1-0.7-0.8-2-1.8-2.2c-0.8-0.1-1.7,0.1-2.1,0.2c-0.7-0.9-1.3-1.9-2-2.9c0.6,0.3,1.5,0.5,2-0.1
			c0.8-0.9,0.8-1,0.8-1l-1.3-0.3c0,0,0.1-0.1,1.1-1s2.2-1,2.2-1s-2.8-0.1-3.5,0.2c-0.7,0.3-0.9,0.5-1.1,0.8c-0.2,0.2-0.6,1-0.8,1.5
			c-1.3-1.9-2.5-3.8-3.8-5.6c0.8,0.1,1.3,0.2,1.3,0.2l-0.3-3.1c0,0,1.5-0.4,2.4-1.2c0.9-0.8,1.7-1.6,1.7-1.6s-1.9-1.2-3.1-1.5
			c-1.1-0.3-1.7-0.4-1.7-0.4l-0.5-3.3c0,0-4.1,3.2-4.1,4.1c0,0.2,0,0.3,0.1,0.5c-0.3-0.5-0.6-1-1-1.4c0.3-0.5,0.8-1.4,0.9-1.7
			c0.1-0.4-3.3-2.2-3.3-2.2l-0.1,0.3c-0.4-0.6-0.9-1.3-1.5-2V9.2c-0.2-0.9-0.6-1.8-0.6-1.8l2.5,0.2c0,0-1-1.8-1.2-2.1
			c-0.2-0.3-2.4-0.5-3.5-0.1c-0.1,0-0.2,0.1-0.3,0.1c-1-1.2-2.1-2.5-3.3-3.8c0.7,0,1.8,0.1,2.4-0.2c0.9-0.4,1.9-2.1,1.9-2.1
			s0,0-0.3,0.5s-2.2,0.7-2.2,0.7l0.6-0.4c0,0-0.6-0.1-1.4,0.2c-0.5,0.2-1,0.6-1.3,0.9c-1-1.1-1.9-2.2-2.9-3.2c0,0,1.4-1.7,2.3-1.8
			c-0.3,0.2-0.5,0.5-0.6,0.8c0.2-0.3,0.6-0.6,1-0.7l0,0c1.1,0.5,1.1,1.4,0.9,1.9l0.1-0.1c0.2-0.4,0.4-1.3-0.6-1.9c0.1,0,0.2,0,0.3,0
			c0.4,0,0.7,0.1,0.9,0.2c0,0.1-0.1,0.1-0.1,0.2c0.1-0.1,0.1-0.1,0.2-0.2c0.3,0.2,0.5,0.6,0.5,0.8c0.1,0,0.1-0.1,0.1-0.1
			c0.1-0.2,0-0.5-0.2-0.8c0.2,0,0.4,0,0.5,0.1l0.2-0.3c-0.2-0.1-0.6-0.1-0.9,0c-0.2-0.2-0.5-0.3-1-0.3c-0.3,0-0.6,0.1-0.9,0.2
			c-1.1-0.4-2.9,1.8-2.9,1.8c-0.3-0.3-0.5-0.6-0.8-0.9c0.7,0.1,1.3,0,1.8-0.6c0.8-0.9,1.4-2.7,1.7-3.6c0.3-0.9,0.2-1.5,0.2-1.5
			s-1.2-0.3-2-0.3c-0.7,0-1.1,0.2-1.1,0.2s0.7-1.5,1-3.8c0.2-2.3-1.6-5.1-1.6-5.1s-2.9,1.1-4.3,3.3c-1,1.6-1.5,3.3-1.5,3.3
			s-1-0.7-1.9-1.1c-0.9-0.3-1.5-0.5-1.5-0.5s0,0.1,0,0.2c-0.3-0.3-0.6-0.7-0.9-1l-0.3,0.3c0.3,0.3,0.7,0.7,1.1,1.1
			c-0.2,1-0.5,2.8-0.5,4.4c0,0.9,1.4,2.4,2.8,2.4s3-0.9,3-0.9l0.5-1.4c0,0-0.6-0.6-1-1.2c-0.4-0.6-1-1.7-1-1.7s0.7,1.1,1.1,1.7
			c0.3,0.4,0.9,0.9,0.9,0.9l1.8-5.1l-1.5,5.2c0,0,0.7-0.1,1.3-0.3c0.6-0.2,2-0.7,2-0.7s-1.2,0.6-1.9,0.9c-0.5,0.2-1.4,0.4-1.4,0.4
			l-0.4,1.3c0,0,1.3,1.9,2.3,2.6c0.1,0.1,0.2,0.1,0.2,0.1c1.4,1.6,2.9,3.2,4.3,4.7c0,0-1.4,0.4-2,0.8c-0.2,0.1-0.4,0.4-0.6,0.6
			c0.1-0.1,0.2-0.2,0.3-0.3c1.1-0.7,2.5-0.8,2.5-0.8h0.1c1.1,1.3,2.2,2.5,3.3,3.7c-0.6,0.3-0.7,0.6-0.7,0.6s-1.5,1.1-1.3,2.2
			c0.2,1,0.3,1.4,0.3,1.4l2-1.6c0,0,0,1.3,0.7,2.1c0.7,0.7,1.7,1.6,1.7,1.6s0.5-1.1,0.6-2c0.5,0.7,1,1.3,1.4,1.9L385,13
			c0,0-1.2-0.1-2.1,0.3c-0.9,0.3-1.7,0.8-1.7,0.8s1.1,1.3,1.9,1.8c0.8,0.5,1.2,0.7,1.2,0.7l-0.4,2.5c0,0,3.8-1.3,4-1.9
			c0.2-0.5,0-1.7-0.1-2.1c0,0-1.2,0-1.9,0c-0.7-0.1-1-0.2-1-0.2s1.8,0.1,2.3,0.1c0.4,0,0.6,0,0.6,0l0,0c0.6,0.9,1.2,1.8,1.9,2.8
			c0.1,0.1,0.1,0.3,0.2,0.3c0,0,1.5-0.6,2.4-0.7c0.9-0.2,1.3-0.2,1.3-0.2s-2.3,0.6-2.9,0.8c-0.5,0.2-0.8,0.3-0.8,0.3s-0.6,2.5-0.5,3
			c0.1,0.3,1.8,0.7,3.2,1c0.3,0.5,0.7,1,1.1,1.6c0,0,0,0.6-0.2,1.1c0.2-0.3,0.5-0.8,0.5-0.8c1.2,1.8,2.4,3.6,3.7,5.5
			c-0.1-0.1-0.1-0.2-0.2-0.2c-0.7-0.6-1.5-0.8-2.2-0.2c-0.7,0.6-1.4,1.9-1.8,2.5s-0.4,1.1-0.4,1.1s0.9,0.4,1.5,0.5s0.8,0,0.8,0
			s-0.8,1-1.2,2.8c-0.5,1.7,0.6,4.1,0.6,4.1s2.4-0.5,3.7-2c1-1.1,1.6-2.3,1.6-2.3s0.7,0.7,1.3,1.1c0.6,0.4,1.1,0.6,1.1,0.6
			s0.1-0.3,0.3-0.8c0.3,0.4,0.6,0.8,0.9,1.2c-0.1,0.4-0.1,0.7,0,0.8c0.3,0.5,1.3,1.1,1.6,1.3c0,0,0.8-1,1.3-1.4s0.8-0.6,0.8-0.6
			s-1.3,1.3-1.6,1.6c-0.3,0.3-0.4,0.5-0.4,0.5s0.6,1.8,0.8,2.2c0.1,0.1,0.3,0.1,0.7,0c0.2,0.3,0.5,0.6,0.7,0.9l0.1,0.1
			c0,0,0.1,0.3,0,0.6c0.2-0.1,0.3-0.2,0.3-0.2c0.7,0.9,1.5,1.7,2.1,2.3c-0.2,0-0.5,0.1-0.7,0.2c-0.5,0.2-1.5,0.9-1.5,0.9
			s0.5,0,1.2,0.2s1.2,1.2,1.2,1.2s-0.5,2.4-0.8,3c-0.3,0.5-0.8,1.1-0.8,1.1s1.1,0.1,2-0.2s2.6-1.3,2.6-1.3s0.1,0.1,0.5,0.4
			c0.4,0.3,0.9,1.6,0.9,1.6s0.2-0.4,0.4-0.9c0.1-0.3,0.1-1.1,0-1.7c1.8,1.5,3.7,2.9,5.6,4.3c-0.1,0-0.1,0-0.2,0
			c-0.6,0.2-2.3,1.2-2.3,1.2l0.9,0.7c0,0-0.4,0.4-0.6,1.1c-0.2,0.7-0.3,1-0.5,1.2c-0.3,0.2-0.3,0.2-0.3,0.2s1.2-0.1,2.1-0.7
			c0.9-0.6,1.4-1.2,1.4-1.2l0.8,0.9c0,0,0.5-1.3,0.6-1.8c0-0.1,0-0.1,0-0.2c0.5,0.3,0.9,0.6,1.4,0.9c-0.1,0.1-0.1,0.1-0.1,0.1
			s-0.3,1.3,0.5,1.6c0.5,0.2,1.9,0.3,2.8,0.4c0.7,0.4,1.4,0.9,2.1,1.3c-0.4,0-0.8,0-1,0.1c0,0,0,0.8-0.1,1.2s-0.1,0.6-0.1,0.6
			s0.1-1.2,0.1-1.4c0-0.3,0-0.4,0-0.4s-1-0.7-1.3-0.8s-1.5,2-1.5,2l1.5,0.4c0,0-0.1,0.7,0.1,1.3c0.2,0.6,0.4,1.1,0.4,1.1
			s0.9-0.7,1.2-1.1c0.3-0.5,0.5-0.7,0.5-0.7l1.6,0.3c0,0-0.5-1.6-0.9-2.3c1.5,0.8,2.8,1.5,4,1.9c6.2,2.5,5.8,2.9,5.5,4V67
			c0.1-0.1,0.2-0.3,0.2-0.5c0.1-0.5,0.2-0.8-0.1-1.2c0,0,0.6-0.2,0.8-0.4c0.1-0.1,0.1-0.2,0.1-0.3C440.5,65.4,439.6,65.4,439.6,65.4
			z M399.5,34.4c-0.2-0.3-0.6-0.8-0.6-0.8l-2.1,3.7l1.8-3.8c0,0-0.5,0-1,0c-0.5,0.1-1.6,0.3-1.6,0.3s1-0.3,1.6-0.5
			c0.4-0.1,1.1-0.1,1.1-0.1l0.5-0.9c0,0-0.2-0.4-0.5-1c0.3,0.4,0.5,0.8,0.8,1.2l-0.5,1c0,0,0.4,0.6,0.6,1.1s0.5,1.5,0.5,1.5
			S399.8,34.9,399.5,34.4z M413.2,49.5L410,53l3-3.5c0,0,0-0.2-0.1-0.6c0.3,0.2,0.5,0.5,0.8,0.7C413.4,49.5,413.2,49.5,413.2,49.5z
			 M422,56.1c0,0-0.5,0.8-0.9,1.2c-0.5,0.5-1.1,0.9-1.1,0.9s0.8-0.8,1.2-1.3c0.4-0.6,0.5-0.9,0.5-0.9s-0.1-0.2-0.2-0.3
			c0.2,0.1,0.4,0.3,0.6,0.4C422.1,56.1,422,56.1,422,56.1z M425.7,57.1c-0.4,0.1-0.7,0.3-0.9,0.4c-0.1-0.1-0.2-0.1-0.3-0.2
			c0.4-0.2,1.2-0.5,1.7-0.6c1-0.2,2.1-0.3,2.1-0.3S426.8,56.8,425.7,57.1z M440.2,63.5c-0.4,0-0.5,0.2-0.6,0.4
			c0.1-0.1,0.2-0.1,0.4-0.1c0.6,0.1,0.9,0.7,0.8,1.2c0,0,0,0,0.1-0.1C441.3,64.6,441,63.6,440.2,63.5z M438.9,64.1
			c0.2-0.3,0-1-0.5-1c-0.3,0-0.4,0.2-0.4,0.4c0.1,0,0.1,0,0.2,0C438.6,63.5,438.8,63.9,438.9,64.1C438.8,64.2,438.8,64.2,438.9,64.1
			z M439.5,64.6l0.2-0.3c0,0,0-0.1,0-0.3C439.4,64.1,439.5,64.6,439.5,64.6z M418.6,51.5l0.2-0.3c0,0-0.1-0.1-0.1-0.3
			C418.3,51.1,418.6,51.5,418.6,51.5z M405.2,46.1c0,0,0.1,0,0.1-0.1c0.2-0.2,0-0.3-0.1-0.5c-0.1,0-0.1,0-0.2,0.1
			C404.8,45.8,405.1,46,405.2,46.1z M405.2,45.3c-0.1,0.1-0.1,0.2,0,0.3c0.3,0,0.7,0.3,0.9,0.4c0.2,0.1,0.2-0.1,0.1-0.4
			C405.9,45.5,405.5,45.1,405.2,45.3z M404.9,46.1l-0.2,0.3c0,0,0.1,0.2,0.4-0.1c0.1-0.1,0.1-0.2,0-0.2
			C405,46.3,404.9,46.1,404.9,46.1z M438.4,67.1c-0.1-0.5,0.1-0.9,0.1-0.9l-0.2,0.3c0,0-0.2,0.4-0.1,0.9s1.3,0.9,1.6,0
			C439.4,67.9,438.5,67.5,438.4,67.1z M407.8,44.6c-0.7-0.1-0.6-0.9-1.2-0.8c-0.4,0.1-0.7,0.4-0.7,0.6c0.1-0.1,0.3-0.2,0.5-0.3
			c0.6-0.2,0.5,0.6,1.2,0.8c0.3,0.1,0.4-0.2,0.5-0.4C408,44.6,407.9,44.6,407.8,44.6z M405.9,45.1c0.2,0.2,0.3,0.4,0.3,0.6l0,0
			c0.3,0.1,0.2-0.6-0.2-0.9c-0.1-0.1-0.2-0.2-0.1-0.3C405.7,44.6,405.7,44.9,405.9,45.1z"/>
	</g>
	<text transform="matrix(1 0 0 1 41.8728 37.2316)" class="st3 st4 st5">Small garden</text>
	<line class="st6" x1="177" y1="163.5" x2="327" y2="163.5"/>
	<g class="st1">
		<g>
			<path class="st7" d="M97.4,80.7L97.4,80.7L97.4,80.7z"/>
			<path class="st7" d="M116.3,73.4L116.3,73.4L116.3,73.4z"/>
			<path class="st7" d="M123.9,55.9c-2-2-4.9-3.3-8-3.3s-5.9,1.3-8,3.3c-2,2-3.3,4.9-3.3,8c0,0.3,0,0.9,0,1.4c0,0.3,0,0.5,0,0.7
				s0,0.3,0,0.3l0,0l0.2,5.7c-0.2-0.2-0.4-0.4-0.7-0.7c-0.5-0.5-1.1-1.1-1.7-1.6c0-0.1-0.1-0.1-0.1-0.2c-0.1-0.2-0.3-0.3-0.4-0.5
				c-0.2-0.3-0.5-0.5-0.6-0.7l0,0c0.1-0.4,0.1-0.8,0.1-1.2c0-0.3,0-0.6-0.1-0.9c-0.1-0.2-0.1-0.4-0.2-0.7c-0.2-0.3-0.4-0.6-0.7-0.8
				c-0.3-0.2-0.7-0.4-1.1-0.4l0,0c-0.1,0-0.2,0-0.4,0c-0.2,0-0.4,0-0.6,0.1c-0.3,0.1-0.6,0.3-0.9,0.4c-0.4,0.3-0.7,0.6-1,1
				c-0.1,0.2-0.3,0.4-0.4,0.6c-0.1,0.1-0.1,0.3-0.2,0.4c-0.8,0.2-1.5,0.5-2.1,0.8s-1,0.8-1.5,1.2c-0.6,0.7-1.1,1.4-1.6,2.2
				c-0.4,0.7-0.8,1.3-1.2,1.9c-0.1,0-0.1,0.1-0.2,0.1c-0.2,0.1-0.5,0.4-0.8,0.7c-0.1,0.2-0.2,0.4-0.3,0.6C88,74.5,88,74.8,88,75.1
				c0,0.4,0.1,0.9,0.3,1.4c0.1,0.3,0.3,0.6,0.5,0.9c0.3,0.5,0.7,0.8,1.2,1.1c0.3,0.2,0.7,0.3,1.1,0.4c0.6,0.2,1.2,0.2,1.9,0.3
				c0.7,0,1.5,0.1,2.4,0.1c0.1,0,0.4,0,0.7,0c0.1,0,0.2,0,0.2,0L96,79.6l0,0l-0.1,0.1l0,0l-2.1,0.6l0,0c-0.2,0.1-0.4,0.1-0.6,0.2
				c-0.3,0.2-0.6,0.4-0.8,0.7c-0.1,0.2-0.2,0.3-0.3,0.5C92,81.9,92,82.1,92,82.4c0,0.2,0,0.3,0.1,0.5c0.1,0.3,0.2,0.5,0.4,0.7
				c0.2,0.3,0.5,0.5,0.8,0.7c0.2,0.1,0.3,0.2,0.5,0.2c0.2,0.1,0.4,0.1,0.6,0.1c0,0,0,0,0.1,0h2.2c0,0.2,0,0.4,0,0.7
				c0,0.4,0.1,0.9,0.2,1.3c0,0.2,0.1,0.4,0.2,0.6c-0.2,0.1-0.4,0.2-0.6,0.3c-0.3,0.2-0.6,0.3-0.8,0.5c-0.3,0.3-0.6,0.6-0.7,1
				s-0.2,0.7-0.2,1c0,0.5,0.1,0.8,0.2,1.1c0.1,0.3,0.2,0.4,0.2,0.5l0.2,0.4H108l0.2-0.4c0,0,0.2-0.4,0.4-1c0.9-0.2,1.8-0.6,2.6-1.2
				c1.5-1.1,3-2.7,4.1-4.7s1.8-4.5,1.8-7.2c0-0.8-0.1-1.5-0.2-2.3c0.1,0,0.3,0,0.4,0l0,0h0.1c2.8-0.4,5.2-1.7,7-3.7s2.8-4.6,2.8-7.5
				C127.2,60.7,125.9,57.9,123.9,55.9z M123.1,70.2c-1.5,1.7-3.6,2.9-5.9,3.2c-0.2,0-0.4,0-0.6,0.1l0,0l0,0l0,0l0,0
				c-0.1,0-0.2,0-0.2,0l0,0h-0.1l0,0c-0.1,0-0.2,0-0.3,0c-0.1,0-0.1,0-0.2,0c-0.9-0.1-1.7-0.6-2.3-1.1c-0.6-0.5-1-1.3-1.3-2.2
				c-0.1-0.3-0.1-0.7-0.1-1c0-0.6,0.1-1.1,0.4-1.7c0.3-0.8,0.9-1.5,1.6-2s1.4-0.8,2.2-0.8c0.4,0,0.7,0.1,1.1,0.2l0.5-1.1
				c-0.5-0.2-1-0.3-1.5-0.3c-0.7,0-1.4,0.2-2,0.5c-0.9,0.4-1.7,1.2-2.3,2c-0.6,0.9-1,1.9-1,3.1c0,0.4,0.1,0.9,0.2,1.3
				c0.3,1.1,0.8,2,1.6,2.7c0.6,0.5,1.3,0.9,2.1,1.2c0.3,0.1,0.4,0.3,0.4,0.6c0.1,0.8,0.2,1.6,0.2,2.4c0,1.6-0.3,3.1-0.8,4.4
				c-0.7,2-1.9,3.8-3.1,5c-0.6,0.6-1.3,1.1-1.9,1.5s-1.2,0.6-1.8,0.7l-0.5,0.1l-0.2,0.5c-0.1,0.3-0.2,0.6-0.3,0.8H96.3
				c0-0.1,0-0.2,0-0.3c0-0.1,0-0.2,0.1-0.3c0-0.1,0.1-0.2,0.1-0.3c0.1-0.1,0.2-0.3,0.5-0.4c0.3-0.2,0.6-0.3,1.1-0.4l0.9-0.2
				l-0.3-0.9c-0.2-0.5-0.3-0.9-0.4-1.2c-0.1-0.4-0.1-0.7-0.1-1s0-0.6,0.1-0.9c0.2,0,0.5-0.1,0.7-0.1c0.3-0.1,0.6-0.1,0.9-0.2
				c0.1-0.1,0.3-0.1,0.4-0.2s0.3-0.2,0.4-0.3c0.3-0.3,0.4-0.8,0-1.2c-0.3-0.3-0.8-0.4-1.2-0.1l0,0c0,0,0,0-0.1,0s-0.2,0.1-0.4,0.1
				c-0.3,0.1-0.6,0.1-1,0.2s-0.7,0.1-1.1,0.2h-2.6l0,0l0,0h-0.1c-0.1,0-0.2-0.1-0.3-0.2l-0.1-0.1l0,0v-0.1v-0.1
				c0-0.1,0.1-0.2,0.2-0.2c0.1-0.1,0.2-0.1,0.3-0.2l2.1-0.6c0.4-0.1,0.8-0.3,1-0.6l1.2-1.4l-0.3-1.9l-0.9,0.2h-0.1
				c-0.1,0-0.2,0-0.3,0c-0.2,0-0.5,0-0.8,0s-0.5,0-0.7,0c-0.9,0-1.7,0-2.4-0.1c-0.5,0-0.9-0.1-1.3-0.1c-0.3-0.1-0.5-0.1-0.7-0.2
				c-0.3-0.1-0.5-0.3-0.7-0.4c-0.2-0.2-0.4-0.4-0.5-0.8c-0.1-0.3-0.2-0.6-0.2-0.7c0-0.2,0-0.3,0.1-0.4c0-0.1,0.1-0.1,0.1-0.2
				c0.1-0.1,0.2-0.2,0.3-0.2c0,0,0.1,0,0.1-0.1l0,0l0,0c0,0,0,0,0.1,0c0,0,0,0,0.1-0.1c0,0,0,0,0.1-0.1l0.1-0.1l0,0
				c0.4-0.6,0.8-1.3,1.2-1.9c0.6-0.9,1.2-1.8,1.9-2.5c0.4-0.3,0.8-0.6,1.2-0.8c0.5-0.2,1-0.4,1.6-0.5l0.7-0.1l0.1-0.7
				c0-0.1,0-0.1,0-0.2s0.1-0.3,0.2-0.5c0.2-0.3,0.4-0.6,0.7-0.8c0.1-0.1,0.2-0.2,0.3-0.2c0.1,0,0.2-0.1,0.2-0.1l0,0l0,0
				c0.2,0,0.4,0.1,0.5,0.2c0.1,0,0.1,0.1,0.2,0.1c0.1,0.1,0.1,0.2,0.2,0.3c0,0.1,0.1,0.3,0.1,0.6c0,0.4-0.1,0.8-0.2,1.3v0.1v0.1
				c0,0.1,0,0.2,0,0.3c0,0.1,0,0.1,0.1,0.1c0,0.1,0,0.1,0.1,0.1l0.1,0.1c0,0.1,0.1,0.1,0.1,0.2c0.1,0.1,0.2,0.2,0.3,0.3
				c0.2,0.2,0.4,0.4,0.5,0.6c0.1,0.1,0.2,0.2,0.2,0.3c0.1,0.1,0.1,0.1,0.1,0.2l0.1,0.1l0.1,0.1c0.6,0.5,1.2,1.1,1.7,1.6
				c0.2,0.2,0.5,0.4,0.6,0.6c0.1,0.1,0.1,0.1,0.2,0.2l0,0l0,0l0,0l0,0c0.3,0.3,0.7,0.4,1.1,0.4c0.3,0,0.5-0.1,0.7-0.2l0,0
				c0.5-0.3,0.8-0.8,0.8-1.4V72l0,0l-0.2-5.9c0-0.2,0-1.8,0-2.4c0-2.7,1.1-5.1,2.8-6.8c1.7-1.7,4.1-2.8,6.8-2.8
				c2.7,0,5.1,1.1,6.8,2.8c1.7,1.7,2.8,4.1,2.8,6.8C125.5,66.3,124.6,68.5,123.1,70.2z"/>
			<circle class="st7" cx="94.8" cy="73.2" r="0.8"/>
		</g>
		<g>
			<path class="st7" d="M126.4,86L126.4,86L126.4,86z"/>
			<path class="st7" d="M136.4,82.2L136.4,82.2L136.4,82.2z"/>
			<path class="st7" d="M140.4,72.9c-1.1-1.1-2.6-1.7-4.2-1.7c-1.6,0-3.1,0.7-4.2,1.7c-1.1,1.1-1.7,2.6-1.7,4.2c0,0.2,0,0.5,0,0.7
				c0,0.1,0,0.3,0,0.4s0,0.2,0,0.2l0,0l0.1,3c-0.1-0.1-0.2-0.2-0.4-0.4c-0.3-0.2-0.6-0.6-0.9-0.8c0,0,0-0.1-0.1-0.1
				c-0.1-0.1-0.1-0.2-0.2-0.3c-0.1-0.1-0.2-0.3-0.3-0.4l0,0c0-0.2,0.1-0.4,0.1-0.6s0-0.3-0.1-0.5c0-0.1-0.1-0.2-0.1-0.3
				c-0.1-0.2-0.2-0.3-0.4-0.4s-0.4-0.2-0.6-0.2l0,0c-0.1,0-0.1,0-0.2,0s-0.2,0-0.3,0c-0.2,0.1-0.3,0.1-0.5,0.2s-0.4,0.3-0.5,0.5
				c-0.1,0.1-0.1,0.2-0.2,0.3c0,0.1-0.1,0.2-0.1,0.2c-0.4,0.1-0.8,0.2-1.1,0.4c-0.3,0.2-0.6,0.4-0.8,0.6c-0.3,0.4-0.6,0.8-0.9,1.1
				c-0.2,0.4-0.4,0.7-0.6,1c0,0-0.1,0-0.1,0.1c-0.1,0.1-0.3,0.2-0.4,0.4c-0.1,0.1-0.1,0.2-0.2,0.3c0,0.1-0.1,0.3-0.1,0.4
				c0,0.2,0.1,0.5,0.2,0.7s0.1,0.3,0.2,0.5c0.2,0.2,0.4,0.4,0.6,0.6c0.2,0.1,0.4,0.2,0.6,0.2c0.3,0.1,0.6,0.1,1,0.1s0.8,0,1.3,0
				c0.1,0,0.2,0,0.4,0h0.1l-0.1,0.2l0,0c0,0,0,0-0.1,0l0,0l-1.1,0.3l0,0c-0.1,0-0.2,0.1-0.3,0.1c-0.1,0.1-0.3,0.2-0.4,0.4
				c-0.1,0.1-0.1,0.2-0.2,0.3c0,0.1-0.1,0.2-0.1,0.4c0,0.1,0,0.2,0,0.3c0,0.1,0.1,0.3,0.2,0.4s0.3,0.3,0.4,0.3s0.2,0.1,0.3,0.1
				c0.1,0,0.2,0,0.3,0l0,0h1.2c0,0.1,0,0.2,0,0.3c0,0.2,0,0.5,0.1,0.7c0,0.1,0.1,0.2,0.1,0.3c-0.1,0-0.2,0.1-0.3,0.1
				c-0.2,0.1-0.3,0.2-0.4,0.3c-0.2,0.2-0.3,0.3-0.4,0.5s-0.1,0.4-0.1,0.5c0,0.2,0.1,0.4,0.1,0.6c0.1,0.1,0.1,0.2,0.1,0.3l0.1,0.2
				h6.7l0.1-0.2c0,0,0.1-0.2,0.2-0.5c0.5-0.1,0.9-0.3,1.4-0.7c0.8-0.6,1.6-1.4,2.2-2.5c0.6-1.1,1-2.4,1-3.8c0-0.4,0-0.8-0.1-1.2
				c0.1,0,0.2,0,0.2,0l0,0l0,0c1.5-0.2,2.8-0.9,3.7-2s1.5-2.4,1.5-3.9C142.2,75.4,141.5,73.9,140.4,72.9z M140,80.4
				c-0.8,0.9-1.9,1.5-3.1,1.7c-0.1,0-0.2,0-0.3,0l0,0l0,0l0,0l0,0h-0.1l0,0l0,0l0,0c-0.1,0-0.1,0-0.2,0h-0.1
				c-0.5-0.1-0.9-0.3-1.2-0.6c-0.3-0.3-0.5-0.7-0.7-1.2c0-0.2-0.1-0.4-0.1-0.5c0-0.3,0.1-0.6,0.2-0.9c0.2-0.4,0.5-0.8,0.8-1
				c0.4-0.3,0.8-0.4,1.1-0.4c0.2,0,0.4,0,0.6,0.1l0.2-0.6c-0.3-0.1-0.5-0.2-0.8-0.2c-0.4,0-0.7,0.1-1,0.2c-0.5,0.2-0.9,0.6-1.2,1.1
				s-0.5,1-0.5,1.6c0,0.2,0,0.5,0.1,0.7c0.2,0.6,0.4,1.1,0.9,1.4c0.3,0.3,0.7,0.5,1.1,0.6c0.2,0,0.2,0.2,0.2,0.3
				c0.1,0.4,0.1,0.9,0.1,1.3c0,0.8-0.2,1.6-0.4,2.4c-0.4,1.1-1,2-1.7,2.6c-0.3,0.3-0.7,0.6-1,0.8c-0.3,0.2-0.7,0.3-0.9,0.4h-0.3
				l-0.1,0.3c-0.1,0.2-0.1,0.3-0.1,0.4h-5.6c0-0.1,0-0.1,0-0.2s0-0.1,0-0.2c0,0,0-0.1,0.1-0.1c0.1-0.1,0.1-0.1,0.3-0.2
				c0.1-0.1,0.3-0.2,0.6-0.2l0.5-0.1l-0.2-0.5c-0.1-0.2-0.2-0.5-0.2-0.6c0-0.2-0.1-0.4-0.1-0.5c0-0.2,0-0.3,0.1-0.5
				c0.1,0,0.3,0,0.4-0.1c0.2,0,0.3-0.1,0.5-0.1c0.1,0,0.1-0.1,0.2-0.1c0.1,0,0.1-0.1,0.2-0.1c0.2-0.2,0.2-0.4,0-0.6s-0.4-0.2-0.6,0
				l0,0l0,0c0,0-0.1,0.1-0.2,0.1S127.2,87,127,87s-0.4,0.1-0.6,0.1H125l0,0l0,0c0,0,0,0-0.1,0s-0.1-0.1-0.2-0.1c0,0,0,0-0.1-0.1l0,0
				l0,0c0,0,0,0,0-0.1l0.1-0.1c0.1,0,0.1-0.1,0.2-0.1l1.1-0.3c0.2,0,0.4-0.2,0.5-0.3l0.7-0.8l-0.1-1l-0.5,0.1c0,0,0,0-0.1,0h-0.1
				c-0.1,0-0.3,0-0.4,0s-0.3,0-0.4,0c-0.5,0-0.9,0-1.3,0c-0.3,0-0.5,0-0.7-0.1c-0.1,0-0.3-0.1-0.4-0.1c-0.2-0.1-0.3-0.1-0.4-0.2
				s-0.2-0.2-0.3-0.4c-0.1-0.2-0.1-0.3-0.1-0.4s0-0.1,0-0.2c0,0,0-0.1,0.1-0.1l0.1-0.1c0,0,0,0,0.1,0l0,0l0,0l0,0l0,0l0,0
				c0,0,0,0,0.1-0.1l0,0c0.2-0.3,0.4-0.7,0.6-1c0.3-0.5,0.6-1,1-1.3c0.2-0.2,0.4-0.3,0.6-0.4s0.5-0.2,0.8-0.2h0.3v-0.3v-0.1
				c0-0.1,0.1-0.2,0.1-0.3c0.1-0.1,0.2-0.3,0.4-0.4c0.1-0.1,0.1-0.1,0.2-0.1s0.1,0,0.1,0l0,0l0,0c0.1,0,0.2,0.1,0.2,0.1
				s0.1,0,0.1,0.1c0,0,0.1,0.1,0.1,0.2s0,0.2,0,0.3c0,0.2,0,0.4-0.1,0.7l0,0l0,0c0,0.1,0,0.1,0,0.1s0,0,0,0.1c0,0,0,0,0,0.1
				c0,0,0,0,0,0.1c0,0,0,0.1,0.1,0.1c0,0,0.1,0.1,0.2,0.2s0.2,0.2,0.3,0.3l0.1,0.1l0.1,0.1v0.1l0.1,0.1c0.3,0.3,0.6,0.6,0.9,0.9
				c0.1,0.1,0.2,0.2,0.3,0.3l0.1,0.1l0,0l0,0l0,0l0,0c0.2,0.1,0.4,0.2,0.6,0.2c0.1,0,0.3,0,0.4-0.1l0,0c0.3-0.1,0.4-0.4,0.4-0.7
				c0,0,0,0,0-0.1l0,0l-0.1-3.1c0-0.1,0-1,0-1.3c0-1.4,0.6-2.7,1.5-3.6s2.2-1.5,3.6-1.5c1.4,0,2.7,0.6,3.6,1.5
				c0.9,0.9,1.5,2.2,1.5,3.6C141.3,78.4,140.8,79.5,140,80.4z"/>
			<circle class="st7" cx="125" cy="82" r="0.4"/>
		</g>
		<g>
			<path class="st7" d="M147.9,87.7L147.9,87.7L147.9,87.7z"/>
			<path class="st7" d="M155,85L155,85L155,85z"/>
			<path class="st7" d="M157.9,78.3c-0.8-0.8-1.8-1.3-3-1.3s-2.2,0.5-3,1.3s-1.2,1.8-1.2,3c0,0.1,0,0.3,0,0.5c0,0.1,0,0.2,0,0.3
				c0,0.1,0,0.1,0,0.1l0,0l0.1,2.2c-0.1-0.1-0.1-0.1-0.3-0.3c-0.2-0.2-0.4-0.4-0.6-0.6c0,0,0,0,0-0.1s-0.1-0.1-0.2-0.2
				c-0.1-0.1-0.2-0.2-0.2-0.3l0,0c0-0.2,0-0.3,0-0.5c0-0.1,0-0.2,0-0.3c0-0.1,0-0.2-0.1-0.2c-0.1-0.1-0.2-0.2-0.3-0.3
				c-0.1-0.1-0.3-0.1-0.4-0.2l0,0h-0.1c-0.1,0-0.2,0-0.2,0c-0.1,0-0.2,0.1-0.3,0.2s-0.3,0.2-0.4,0.4c-0.1,0.1-0.1,0.1-0.1,0.2
				s-0.1,0.1-0.1,0.2c-0.3,0.1-0.6,0.2-0.8,0.3c-0.2,0.1-0.4,0.3-0.6,0.5c-0.2,0.3-0.4,0.5-0.6,0.8c-0.2,0.3-0.3,0.5-0.5,0.7
				c0,0,0,0-0.1,0c-0.1,0.1-0.2,0.1-0.3,0.3c0,0.1-0.1,0.1-0.1,0.2s0,0.2,0,0.3c0,0.2,0,0.3,0.1,0.5c0,0.1,0.1,0.2,0.2,0.3
				c0.1,0.2,0.3,0.3,0.4,0.4c0.1,0.1,0.3,0.1,0.4,0.2c0.2,0.1,0.5,0.1,0.7,0.1c0.3,0,0.6,0,0.9,0c0.1,0,0.1,0,0.3,0h0.1l-0.1,0.1
				l0,0c0,0,0,0-0.1,0l0,0l-0.8,0.2l0,0c-0.1,0-0.1,0-0.2,0.1c-0.1,0.1-0.2,0.1-0.3,0.3c0,0.1-0.1,0.1-0.1,0.2s0,0.2,0,0.3
				c0,0.1,0,0.1,0,0.2s0.1,0.2,0.1,0.3c0.1,0.1,0.2,0.2,0.3,0.2s0.1,0.1,0.2,0.1c0.1,0,0.1,0,0.2,0l0,0h0.8c0,0.1,0,0.2,0,0.3
				c0,0.2,0,0.3,0.1,0.5c0,0.1,0,0.1,0.1,0.2c-0.1,0-0.1,0.1-0.2,0.1c-0.1,0.1-0.2,0.1-0.3,0.2s-0.2,0.2-0.3,0.4
				c-0.1,0.1-0.1,0.3-0.1,0.4c0,0.2,0,0.3,0.1,0.4c0,0.1,0.1,0.2,0.1,0.2l0.1,0.2h4.8l0.1-0.2c0,0,0.1-0.1,0.2-0.4
				c0.3-0.1,0.7-0.2,1-0.5c0.6-0.4,1.1-1,1.5-1.8s0.7-1.7,0.7-2.7c0-0.3,0-0.6-0.1-0.9c0.1,0,0.1,0,0.2,0l0,0l0,0
				c1-0.1,2-0.7,2.6-1.4c0.7-0.8,1.1-1.7,1.1-2.8C159.1,80.1,158.7,79.1,157.9,78.3z M157.6,83.7c-0.6,0.6-1.4,1.1-2.2,1.2
				c-0.1,0-0.2,0-0.2,0l0,0l0,0l0,0l0,0h-0.1l0,0l0,0l0,0H155c0,0,0,0-0.1,0c-0.3-0.1-0.6-0.2-0.9-0.4c-0.2-0.2-0.4-0.5-0.5-0.8
				c0-0.1,0-0.3,0-0.4c0-0.2,0-0.4,0.1-0.6c0.1-0.3,0.3-0.6,0.6-0.7c0.3-0.2,0.5-0.3,0.8-0.3c0.1,0,0.3,0,0.4,0.1l0.2-0.4
				c-0.2-0.1-0.4-0.1-0.6-0.1c-0.3,0-0.5,0.1-0.7,0.2c-0.4,0.2-0.7,0.4-0.9,0.8c-0.2,0.3-0.4,0.7-0.4,1.2c0,0.2,0,0.3,0.1,0.5
				c0.1,0.4,0.3,0.8,0.6,1c0.2,0.2,0.5,0.4,0.8,0.4c0.1,0,0.1,0.1,0.2,0.2c0.1,0.3,0.1,0.6,0.1,0.9c0,0.6-0.1,1.2-0.3,1.7
				c-0.3,0.8-0.7,1.4-1.2,1.9c-0.2,0.2-0.5,0.4-0.7,0.6c-0.2,0.1-0.5,0.2-0.7,0.3h-0.2l-0.1,0.2c0,0.1-0.1,0.2-0.1,0.3h-4v-0.1v-0.1
				c0,0,0-0.1,0.1-0.1c0,0,0.1-0.1,0.2-0.2c0.1-0.1,0.2-0.1,0.4-0.2l0.3-0.1l-0.1-0.3c-0.1-0.2-0.1-0.3-0.1-0.5c0-0.1,0-0.3,0-0.4
				s0-0.2,0.1-0.3c0.1,0,0.2,0,0.3-0.1c0.1,0,0.2-0.1,0.3-0.1s0.1,0,0.2-0.1l0.1-0.1c0.1-0.1,0.1-0.3,0-0.4s-0.3-0.1-0.4,0l0,0l0,0
				c0,0-0.1,0-0.2,0.1c-0.1,0-0.2,0.1-0.4,0.1c-0.1,0-0.3,0-0.4,0.1h-1l0,0l0,0c0,0,0,0-0.1,0l-0.1-0.1l0,0l0,0l0,0l0,0
				c0,0,0-0.1,0.1-0.1l0.1-0.1l0.8-0.2c0.2,0,0.3-0.1,0.4-0.2l0.5-0.5l-0.1-0.7l-0.3,0.1c0,0,0,0-0.1,0H148c-0.1,0-0.2,0-0.3,0
				s-0.2,0-0.3,0c-0.3,0-0.6,0-0.9,0c-0.2,0-0.4,0-0.5-0.1c-0.1,0-0.2,0-0.3-0.1c-0.1,0-0.2-0.1-0.3-0.2s-0.1-0.2-0.2-0.3
				c-0.1-0.1-0.1-0.2-0.1-0.3c0-0.1,0-0.1,0-0.1s0-0.1,0.1-0.1l0.1-0.1l0,0l0,0l0,0l0,0l0,0l0,0l0,0l0,0c0.2-0.2,0.3-0.5,0.5-0.7
				c0.2-0.4,0.4-0.7,0.7-0.9c0.1-0.1,0.3-0.2,0.5-0.3c0.2-0.1,0.4-0.1,0.6-0.2h0.2v-0.3c0,0,0,0,0-0.1c0,0,0-0.1,0.1-0.2
				s0.2-0.2,0.3-0.3l0.1-0.1h0.1l0,0l0,0c0.1,0,0.1,0,0.2,0.1c0,0,0,0,0.1,0.1c0,0,0,0.1,0.1,0.1c0,0.1,0,0.1,0,0.2s0,0.3-0.1,0.5
				l0,0l0,0c0,0.1,0,0.1,0,0.1l0,0l0,0l0,0c0,0,0,0,0.1,0.1l0.1,0.1c0.1,0.1,0.1,0.1,0.2,0.2l0.1,0.1v0.1l0,0l0,0
				c0.2,0.2,0.5,0.4,0.6,0.6c0.1,0.1,0.2,0.2,0.2,0.2s0,0.1,0.1,0.1l0,0l0,0l0,0l0,0c0.1,0.1,0.3,0.2,0.4,0.2c0.1,0,0.2,0,0.3-0.1
				l0,0c0.2-0.1,0.3-0.3,0.3-0.5l0,0l0,0l-0.1-2.2c0-0.1,0-0.7,0-0.9c0-1,0.4-1.9,1.1-2.6c0.7-0.7,1.6-1.1,2.6-1.1s1.9,0.4,2.6,1.1
				c0.7,0.7,1.1,1.6,1.1,2.6C158.5,82.2,158.2,83.1,157.6,83.7z"/>
			<circle class="st7" cx="146.9" cy="84.9" r="0.3"/>
		</g>
	</g>
</g>
<g id="人気" class="st0">
	<g class="st1">
		<path class="st2" d="M390.7,26.8c0-0.3,0-0.6,0.1-0.9c-0.2,0.3-0.3,0.7-0.3,1C390.6,26.9,390.6,26.8,390.7,26.8z M391.2,27
			c0.2,0.1,0.4,0.2,0.4,0.4c0.4-0.2,0.1-0.6-0.3-0.7c-0.2-0.1-0.4,0-0.7,0.1c0,0.1,0,0.2,0,0.2C390.9,27,391.1,27,391.2,27z
			 M389.9,28l0.2-0.3c0-0.1,0-0.2,0-0.2C390,27.6,389.9,27.8,389.9,28z M390.1,27.4c0.1-0.1,0.3-0.2,0.4-0.3c0-0.1,0-0.1,0-0.2
			C390.3,27.1,390.1,27.2,390.1,27.4z M390.7,27c-0.1,0-0.1,0.1-0.2,0.1c0,0.5,0.2,0.8,0.6,0.7c0.4-0.1,0.5-0.3,0.5-0.5
			c-0.1,0-0.2,0.1-0.3,0.1C391,27.6,390.8,27.4,390.7,27z M393.5,25.8c-0.7,0.4-1.4-1-2.3-0.5c-0.2,0.1-0.4,0.4-0.5,0.6
			c0.1-0.1,0.2-0.2,0.3-0.3c0.8-0.5,1.6,0.9,2.3,0.5c0.2-0.1,0.4-0.4,0.5-0.7C393.8,25.6,393.6,25.7,393.5,25.8z M376.5-1.9
			c-0.1-0.2-0.1-0.5,0-0.7c-0.2,0.3-0.3,0.7-0.1,1c0.5,0.8,1.7,0.9,2,0.4c0-0.1,0.1-0.1,0.1-0.2C378-1,376.9-1.2,376.5-1.9z
			 M379-2.9C379-3,379-3,379-2.9c-0.1,0.1-0.1,0.2-0.2,0.3c-0.1,0.7,0.6,0.9,0.8,0.5c0-0.1,0-0.1,0-0.2C379.4-2.2,378.9-2.4,379-2.9
			z M374,6.3c0.3,0.6,1.6,1,2,0.1l0,0c-0.5,0.4-1.5,0.1-1.8-0.4s-0.1-1.8,0.4-2.8C373.9,4.1,373.7,5.8,374,6.3z M376.4,6.1
			c0.4-0.9-0.5-1.3-0.5-1.3l-0.3,0.3c0,0,0.9,0.4,0.5,1.3C376.2,6.4,376.3,6.3,376.4,6.1z M393.9,67.9L393.9,67.9
			c-0.4,0.2,0,0.6,0.3,0.6c0.1,0,0.2-0.1,0.2-0.3l0,0C394.2,68.2,394,68,393.9,67.9z M401.6,62.4c-0.2,0.1-0.3,0.3-0.4,0.5
			c0.1-0.1,0.1-0.1,0.2-0.2c0.8-0.5,1.7,0.5,1.7,1.2c0,0.1,0,0.2,0,0.2c0.1-0.2,0.2-0.4,0.2-0.5C403.3,62.9,402.4,61.8,401.6,62.4z
			 M401.2,64l0.1-0.3c0,0-0.3-0.5-0.1-0.9C400.8,63.4,401.2,64,401.2,64z M393.1,65.3c0.4,0.5,1,0.3,1,0.8v0.1
			c0.1-0.1,0.1-0.2,0.2-0.4c0.1-0.5-0.6-0.3-1-0.8c-0.1-0.1-0.1-0.2-0.1-0.2C392.9,64.9,392.8,65,393.1,65.3z M393.1,64.8
			c0.2-0.1,0.4-0.2,0.5-0.4c0,0,0.1-0.1,0.1-0.2C393.4,64.5,393,64.5,393.1,64.8z M393.6,66.8c0.1,0.3,0.4,0.6,0.6,0.7l0,0
			c-0.1,0-0.2,0-0.3,0c-0.1,0.1-0.1,0.2-0.1,0.3c0.1,0,0.3,0,0.5,0c0,0.1,0,0.1,0,0.2c0.1,0,0.1-0.1,0.1-0.2
			c0.4,0.1,0.8,0.4,0.8,0.4l0.2,0.1l-0.1-0.2c0,0-0.4-0.3-0.8-0.5c0-0.2,0-0.3-0.1-0.4c-0.2-0.2-0.6-0.5-0.6-0.7
			C393.7,66.7,393.6,66.7,393.6,66.8z M393.8,66.6L393.8,66.6c0.1-0.1,0.2-0.2,0.3-0.4C393.9,66.3,393.7,66.4,393.8,66.6z
			 M415.5,70.8c-0.1-0.3-0.2-0.4-0.2-0.4l1.9-2c0,0-4.2-1.1-4.7-0.6c-0.5,0.4-1,1.5-1.2,1.9c0,0,1.1,0.7,1.7,1.2
			c0.5,0.5,0.8,0.8,0.8,0.8s-1.6-1.2-2-1.5s-0.6-0.3-0.6-0.3l0,0v-0.1c-0.9-0.2-1.9-0.5-2.9-0.8c0-0.5-0.6-1.2-1.2-1.3
			c-0.7-0.1-1.6,0.2-1.6,0.2l-0.4,0.6c0,0,0.2,0.4,0.4,0.7c0.2,0.3,0.3,1,0.3,1s-0.3-0.6-0.4-1c-0.1-0.2-0.4-0.6-0.4-0.6l-1.3,2.4
			l1.2-2.5c0,0-0.3,0-0.7,0c-0.3,0-1.1,0.2-1.1,0.2s0.7-0.2,1.1-0.3c0.3-0.1,0.8-0.1,0.8-0.1l0.3-0.6c0,0-0.5-1.1-1-1.5
			s-1-0.5-1.4-0.1c-0.3,0.2-0.5,0.5-0.7,0.9c-0.6-0.2-1.1-0.4-1.7-0.7l0,0c1.2,0,2.5-1.2,2.7-2.2c-0.4,0.8-1.4,1.8-2.4,1.9
			c-0.3,0-1.2,0-1.2,0c-3.2-1.3-6.4-2.9-9.3-4.8c-0.1-0.3-0.1-0.5-0.1-0.5l-7.2-4.2l7.2,3.8c0,0,2.9-0.7,3.9-3.6c0.4-1,0-2-0.6-2.8
			s-2.1-2.3-2.1-2.3s0.2,0.9,0.1,2.1c-0.1,1.2-1.6,2.5-1.6,2.5s-4.3,0.1-5.4-0.3c-0.2-0.1-0.4-0.2-0.7-0.2c-1.2-1.5-2.5-3.8-3.8-6.8
			l0.7,0.8c0,0,1.2-2.9,1.5-4.3c0.3-1.4-0.7-2-1.2-2s-1.3,0-1.3,0s-1.1,1.9-2,2.9c-1.1,1.1-2.5,2.2-2.5,2.2s1.8-1.8,2.8-3.2
			c1-1.3,1.1-2.1,1.1-2.1s-0.7-1.9-2-1.5l0,0c-0.1-0.4-0.3-0.7-0.4-1.1c0.2,0.3,0.5,0.6,0.9,0.7c0.8,0,1,0.1,1,0.1l-0.7-1.7
			c0,0,0.9,0.3,1.5-0.1c0.6-0.3,1.4-0.9,1.4-0.9s-1-0.8-1.7-0.9c-0.7-0.1-1.3,0.1-1.3,0.1l0.6-1.7c0,0-1.4,0.4-1.7,0.4
			c-0.2,0.1-0.7,1.2-0.7,2c-0.1-0.2-0.2-0.5-0.2-0.7c0.9-1.5,1.6-3.2,0.7-4c-0.9-0.7-2.4-1.4-2.4-1.4s0,0,0,0.1
			c-0.1-0.2-0.1-0.4-0.2-0.6c0.2-0.7,0.6-3.1-0.3-4.2c-0.5-0.7-1.1-1.2-1.5-1.5c-0.1-0.3-0.2-0.5-0.2-0.8c0.5,0,1,0,1.4-0.1
			c0.5,0,0.8-0.2,0.8-0.2s-0.1-0.7-0.3-1.1c-0.2-0.4-0.4-0.5-0.4-0.5s0.9,0,2.2-0.4c1.2-0.4,2.2-2,2.2-2s-1.3-1.2-2.7-1.4
			c-1-0.2-2,0-2,0s0.1-0.7,0.1-1.2s-0.1-0.9-0.1-0.9s-1.6,0.3-2.7,0.9c-0.2,0.1-0.3,0.2-0.4,0.5c-0.1-0.5-0.3-1-0.4-1.5
			c0.3-0.3,0.7-0.6,1-0.9c1.1-1.2,2.9-4.3,2.9-4.3s0.2,0,1.2,0.1c0.9,0.1,2.8,1.7,2.8,1.7s0-0.8-0.2-1.7c-0.2-0.8-1.9-3.7-3.4-3.8
			c-1.5-0.2-3.1,0.9-3.1,0.9l-1.8,8.1l1.4-8c0,0-1.3-2-3.7-2.5c-0.2-0.5-0.3-1.1-0.5-1.6l2.3,0.8c0,0-0.9-5.7-1.7-6.2
			c-0.5-0.3-1.6-0.4-2.4-0.4c-0.2-0.5-0.3-0.9-0.4-1.4l0.2-1c0,0,0.7,0.5,1.5,0.6c0.7,0,1.8,0,1.8,0s-0.5-1-1.1-1.3
			s-1.3-0.5-1.3-0.5l1.4-0.8c0,0-1.5-0.4-1.8-0.4c-0.2,0-1,0.4-1.5,0.8c-0.1-0.3-0.2-0.5-0.3-0.8l-0.1-0.2l0,0
			c-0.1-0.3-0.2-0.6-0.4-0.9c-0.3-0.6-0.6-1.2-0.9-1.8c0.6-0.8,1.5-2.1,2-3.3c0.3-0.8-0.2-2.5-1.4-3.1c-1.1-0.6-2.9-0.4-2.9-0.4
			l-0.9,0.9c0,0,0.3,0.8,0.4,1.4c0.1,0.6,0.1,1.8,0.1,1.8s-0.1-1.2-0.3-1.9c-0.1-0.4-0.4-1.2-0.4-1.2l-3.5,3.5l3.3-3.8
			c0,0-0.6-0.2-1.1-0.3c-0.6-0.1-2-0.2-2-0.2s1.3,0,2,0c0.5,0,1.3,0.2,1.3,0.2l0.8-0.9c0,0-0.3-2.1-1-3.1c-0.6-0.9-1.4-1.3-2.4-0.9
			c-0.7,0.3-1.4,0.9-2,1.5c-4.2-3.7-8-5.7-8-5.7l-0.1,0.3c0,0,3.8,2.1,7.9,5.7c-0.2,0.2-0.4,0.4-0.6,0.6c-0.6,0.6-0.8,1.1-0.8,1.1
			s0.9,0.8,1.5,1c0.6,0.3,1,0.2,1,0.2s-1.2,0.9-2.3,2.8c-1.1,1.8-0.6,4.9-0.6,4.9s2.9,0.2,4.9-1c1.5-0.9,2.5-2.2,2.5-2.2
			s0.5,1,1.1,1.6s1,1,1,1s0.1-0.1,0.3-0.4c0.3,0.6,0.6,1.2,0.9,1.9c0,0.1,0.1,0.1,0.1,0.2c-0.5-0.4-1.2-0.9-1.9-0.4
			c-1,0.7-1.1,0.7-1.1,0.7l1.1,0.7c0,0-0.1,0.1-1.3,0.7c-1.2,0.6-2.4,0.4-2.4,0.4s2.7,0.9,3.4,0.8c0.8-0.1,1-0.2,1.3-0.4
			c0.2-0.2,0.9-0.9,1.2-1.2c0.1,0.1,0.1,0.3,0.2,0.4c-0.1,0.1-0.1,0.1-0.2,0.2c-0.4,0.5-0.2,0.8-0.2,0.8s-0.2,1,0.5,1.3
			c0.4,0.2,0.7,0.3,0.8,0.4c0.1,0.4,0.2,0.7,0.4,1.1c-0.2,0-0.3,0-0.4,0c0,0-0.3,1.8-0.6,2.7c-0.3,0.9-0.5,1.4-0.5,1.4
			s0.6-2.6,0.8-3.2c0.1-0.6,0.1-0.9,0.1-0.9s-2.1-1.9-2.7-2.1c-0.6-0.2-4,4.1-4,4.1l3.2,1.4c0,0-0.4,1.7-0.1,3s0.6,2.6,0.6,2.6
			s2.2-1.3,3.1-2.2s1.3-1.5,1.3-1.5l0.9,0.3c0.2,0.5,0.3,1.1,0.5,1.7c-0.2,0-0.4-0.1-0.7-0.1c-1.1,0-1.9,0.6-2.5,1.4
			s-1.5,2.7-1.5,2.7s0.8-0.4,2-0.8c1.2-0.3,2.9,0.8,2.9,0.8s1.4,4.1,1.4,5.2s-0.3,2.4-0.3,2.4s0.8-0.4,1.7-1.1
			c0.2,0.5,0.3,1.1,0.5,1.6c-0.1,0.4-0.2,0.9,0,1.2c0.1,0.3,0.4,0.6,0.6,0.9c0.1,0.3,0.2,0.6,0.2,0.8c0,0-1,1-1.8,0.8
			c0.3-0.1,0.4-0.4,0.5-0.6c-0.2,0.2-0.5,0.4-0.8,0.5l0,0c-0.6-0.4-0.6-0.9-0.5-1.2c-0.2,0.3-0.4,0.8,0.1,1.3c-0.1,0-0.1,0-0.2,0
			c-0.2-0.1-0.4-0.1-0.5-0.2l0.1-0.1v-0.1c-0.1,0.1-0.1,0.1-0.2,0.1c-0.2-0.2-0.2-0.4-0.2-0.6c0,0-0.1,0-0.1,0.1
			c-0.1,0.1-0.1,0.3,0,0.5c-0.1,0-0.2-0.1-0.3-0.1l-0.3-0.2l0.2,0.5c0.1,0.1,0.4,0.2,0.6,0.1c0.1,0.1,0.3,0.3,0.6,0.3
			c0.2,0,0.4,0,0.6,0c0.8,0.5,2.3-0.9,2.3-0.9v0.1c-0.2,0.4-0.5,1-0.5,1.4c-0.1,0.7,0.1,1.2,0.8,1.4c0.2,0.1,0.4,0.1,0.6,0.1
			c0.1,0.2,0.1,0.4,0.2,0.6c-0.3-0.2-0.4-0.3-0.4-0.3s-0.6,2.1-1.9,2.6c-1.4,0.5-3.1,0.5-3.1,0.5s0.2,2.4,1.3,3.3
			c1.1,0.9,1.8,1.3,1.8,1.3s-0.7,1.4-2,3.4c-1.2,2-3.4,4.7-3.4,4.7s3.7-0.1,6.2-1.1s3.3-1.9,3.3-1.9l0.4,2.7c0,0,0.8-1.8,1.7-3.3
			c0.4,1.2,0.8,2.4,1.3,3.6c-1.5,0.6-5.1,2.7-5.1,2.7l2.2,1.7c0,0-1,0.9-1.5,2.5s-0.6,2.3-1.3,2.7c-0.7,0.4-0.7,0.4-0.7,0.4
			s2.8-0.2,4.9-1.5s3.3-2.7,3.3-2.7l0.8,0.8c0.7,1.8,1.5,3.3,2.2,4.7c0,0-0.5,0.4-1.2,0.5s-1.6-0.8-1.7-1.2c0-0.1,0-0.2,0-0.3
			c-0.1,0.2-0.2,0.4-0.2,0.6c0.1,0.4,1,1.2,1.7,1.1c0.7-0.1,1.4-0.6,1.4-0.6c0.5,0.9,1,1.6,1.4,2.3c-0.6-0.3-1-0.5-1-0.5
			s0.3,2,1.1,3.4c0.8,1.4,3.2,4,3.2,4s-0.1,0.2-0.5,1.1c-0.4,0.9-2.5,2.2-2.5,2.2s0.8,0.2,1.6,0.3c0.9,0,4.1-0.6,4.7-2.1
			c0.3-0.8,0.3-1.6,0.3-2.3c1,0.7,2,1.3,3.1,1.9c0,0,0.3,0.5,0.3,0.8l0.1-0.1c0.1-0.1,0.2-0.4,0.2-0.4c2.7,1.4,5.4,2.6,8.1,3.6
			c-0.1,0.2-0.2,0.4-0.3,0.5c-0.2,0.4-0.2,0.7-0.2,0.7s0.6,0.3,1,0.3c0.4,0.1,0.6,0,0.6,0s-0.5,0.7-0.8,1.8
			c-0.3,1.1,0.4,2.7,0.4,2.7s1.6-0.3,2.4-1.3c0.7-0.7,1-1.5,1-1.5s0.4,0.5,0.9,0.7c0.4,0.2,0.7,0.4,0.7,0.4s0.5-1.2,0.7-2.3
			c0.9,0.3,1.8,0.5,2.6,0.7c-0.6,0.3-1.6,0.8-1.8,1c-0.3,0.3,1.7,4,1.7,4l1.9-1.8c0,0,1,0.8,2,1s2,0.3,2,0.3s-0.2-1.9-0.6-2.8
			c-0.1-0.2-0.2-0.4-0.3-0.6c6.8,1.4,8.1,0.8,8.1,0.8l0.1-0.3C423.9,71.6,422.6,72.2,415.5,70.8z M371.8,22l-0.7,0.1
			c0,0,0,0-0.1,0.1c-0.1-0.2-0.1-0.4-0.2-0.6c0.1,0.1,0.2,0.2,0.2,0.2l0.8-0.1c0,0,0.2-0.5,0.4-0.8c0.2-0.3,0.7-0.9,0.7-0.9
			s-0.4,0.6-0.6,1c-0.1,0.2-0.3,0.7-0.3,0.7l3-0.3l-3,0.5c0,0,0.2,0.3,0.4,0.6c0.2,0.3,0.8,0.8,0.8,0.8s-0.6-0.5-0.9-0.8
			C372.1,22.4,371.8,22,371.8,22z M371.9,36.6c-1.7,1.9-4.5,3.2-4.5,3.2s3.3-1.9,4.2-3.4c1.2-1.8,2-3.7,2.2-4.2
			c0.1,0.2,0.1,0.4,0.2,0.6C373.7,33.7,373.1,35.2,371.9,36.6z M379.6,51.7c0.5,0.2,0.3,0.8,0.3,0.8l0.1-0.3c0,0,0.2-0.5-0.3-0.8
			c-0.4-0.2-0.7,0.2-0.8,0.5C379.1,51.8,379.3,51.6,379.6,51.7z M367.7,22.5c0,0,0.1-0.1,0.1-0.2c0.2-0.4-0.3-0.7-0.5-0.5
			c0,0.1-0.1,0.1-0.1,0.2C367.4,21.9,367.7,22.1,367.7,22.5z M369.5,22.2c0,0.1,0,0.2,0,0.3c0.1-0.2,0.2-0.4,0.1-0.6
			c-0.2-0.6-1.1-0.8-1.3-0.5c-0.1,0.1-0.1,0.2-0.2,0.3c0,0,0,0,0-0.1C368.5,21.3,369.3,21.6,369.5,22.2z M431.9,64
			c0,0.6,0.6,1.4,0.6,1.4s0,0-0.2-0.3s0.1-1.2,0.1-1.2l0.1,0.4c0,0,0.2-0.3,0.2-0.8s-0.3-1-0.3-1S431.9,63.4,431.9,64z M384.1,49.5
			c-1.1,0.1-2.8,1.7-2.8,1.7l0.4,0.8c0,0,0.3,0.5,0.8,0.7c0.5,0.3,1,1,3.3,0.1s2.6-3,2.6-3s-0.6,0.1-1.5,1.2
			c-0.9,1.1-2.6,0.3-2.6,0.3l1.2-1.8C385.5,49.4,385.2,49.3,384.1,49.5z M437.8,63.9l0.2-0.3v-0.1C437.7,63.6,437.8,63.9,437.8,63.9
			z M418.9,50.5c-0.2,0.1-0.2,0.2-0.2,0.4l0,0c0.4-0.3,0.8,0.2,0.8,0.6v0.1c0.1-0.2,0.2-0.3,0.2-0.4
			C419.7,50.7,419.3,50.2,418.9,50.5z M439.6,65.4c-0.3-0.2-0.6-0.4-1.1-0.7c0,0,0.2-0.1,0.2-0.2c0.1-0.1,0.1-0.2,0.1-0.3
			c-0.3,0.2-1,0.1-1,0.1c-0.8-0.4-1.8-0.8-3.2-1.4c-1.7-0.7-3.8-1.8-6-3.1c0.1,0,0.2,0,0.2,0l-0.5-1.7c0,0,0.9-0.1,1.7-0.8
			c0.8-0.7,1.2-1,1.7-1s0.5,0,0.5,0s-1.5-0.9-3.1-1s-2.7,0.2-2.7,0.2l-0.3-1.8c0,0-1.7,1.1-2.4,1.7c-0.3,0.3-0.4,0.6-0.4,0.9
			c-1.8-1.2-3.5-2.5-5.2-3.8h0.1c0.1,0,0.1,0,0.2,0c0.6,0,1.1-0.7,1.3-1.1c-0.2,0.3-0.7,0.7-1.1,0.7c-0.6,0-1.2-0.3-1.2-0.3h-0.1
			c-0.6-0.5-1.2-1-1.8-1.4c-0.1-0.2-0.2-0.4-0.4-0.5c-0.2-0.1-0.3-0.2-0.5-0.3c-0.6-0.5-1.2-1.1-1.8-1.6c-0.2-0.4-0.6-0.9-1.1-1.3
			c-0.1-0.1-0.3-0.1-0.4-0.2c-0.1-0.1-0.2-0.2-0.3-0.3c-0.9-0.9-2-2.1-3.2-3.6c1.1-0.3,2.7-0.9,2.7-0.9l-1.4-2c0,0,0.8-0.8,1.1-1.7
			c0.3-0.9,0.5-1.8,0.5-1.8s-1.7,0-2.6,0.2s-1.3,0.4-1.3,0.4l-1.6-2c0,0-0.7,1.8-1,3c-0.3-0.4-0.6-0.8-0.9-1.2
			c0.3-0.7,0.6-1.7,0.7-2.6c0.1-0.7-0.8-2-1.8-2.2c-0.8-0.1-1.7,0.1-2.1,0.2c-0.7-0.9-1.3-1.9-2-2.9c0.6,0.3,1.5,0.5,2-0.1
			c0.8-0.9,0.8-1,0.8-1l-1.3-0.3c0,0,0.1-0.1,1.1-1s2.2-1,2.2-1s-2.8-0.1-3.5,0.2c-0.7,0.3-0.9,0.5-1.1,0.8c-0.2,0.2-0.6,1-0.8,1.5
			c-1.3-1.9-2.5-3.8-3.8-5.6c0.8,0.1,1.3,0.2,1.3,0.2l-0.3-3.1c0,0,1.5-0.4,2.4-1.2c0.9-0.8,1.7-1.6,1.7-1.6s-1.9-1.2-3.1-1.5
			c-1.1-0.3-1.7-0.4-1.7-0.4l-0.5-3.3c0,0-4.1,3.2-4.1,4.1c0,0.2,0,0.3,0.1,0.5c-0.3-0.5-0.6-1-1-1.4c0.3-0.5,0.8-1.4,0.9-1.7
			c0.1-0.4-3.3-2.2-3.3-2.2l-0.1,0.3c-0.4-0.6-0.9-1.3-1.5-2V9.2c-0.2-0.9-0.6-1.8-0.6-1.8l2.5,0.2c0,0-1-1.8-1.2-2.1
			c-0.2-0.3-2.4-0.5-3.5-0.1c-0.1,0-0.2,0.1-0.3,0.1c-1-1.2-2.1-2.5-3.3-3.8c0.7,0,1.8,0.1,2.4-0.2c0.9-0.4,1.9-2.1,1.9-2.1
			s0,0-0.3,0.5s-2.2,0.7-2.2,0.7l0.6-0.4c0,0-0.6-0.1-1.4,0.2c-0.5,0.2-1,0.6-1.3,0.9c-1-1.1-1.9-2.2-2.9-3.2c0,0,1.4-1.7,2.3-1.8
			c-0.3,0.2-0.5,0.5-0.6,0.8c0.2-0.3,0.6-0.6,1-0.7l0,0c1.1,0.5,1.1,1.4,0.9,1.9l0.1-0.1c0.2-0.4,0.4-1.3-0.6-1.9c0.1,0,0.2,0,0.3,0
			c0.4,0,0.7,0.1,0.9,0.2c0,0.1-0.1,0.1-0.1,0.2c0.1-0.1,0.1-0.1,0.2-0.2c0.3,0.2,0.5,0.6,0.5,0.8c0.1,0,0.1-0.1,0.1-0.1
			c0.1-0.2,0-0.5-0.2-0.8c0.2,0,0.4,0,0.5,0.1l0.2-0.3c-0.2-0.1-0.6-0.1-0.9,0c-0.2-0.2-0.5-0.3-1-0.3c-0.3,0-0.6,0.1-0.9,0.2
			c-1.1-0.4-2.9,1.8-2.9,1.8c-0.3-0.3-0.5-0.6-0.8-0.9c0.7,0.1,1.3,0,1.8-0.6c0.8-0.9,1.4-2.7,1.7-3.6c0.3-0.9,0.2-1.5,0.2-1.5
			s-1.2-0.3-2-0.3c-0.7,0-1.1,0.2-1.1,0.2s0.7-1.5,1-3.8c0.2-2.3-1.6-5.1-1.6-5.1s-2.9,1.1-4.3,3.3c-1,1.6-1.5,3.3-1.5,3.3
			s-1-0.7-1.9-1.1c-0.9-0.3-1.5-0.5-1.5-0.5s0,0.1,0,0.2c-0.3-0.3-0.6-0.7-0.9-1l-0.3,0.3c0.3,0.3,0.7,0.7,1.1,1.1
			c-0.2,1-0.5,2.8-0.5,4.4c0,0.9,1.4,2.4,2.8,2.4s3-0.9,3-0.9l0.5-1.4c0,0-0.6-0.6-1-1.2c-0.4-0.6-1-1.7-1-1.7s0.7,1.1,1.1,1.7
			c0.3,0.4,0.9,0.9,0.9,0.9l1.8-5.1l-1.5,5.2c0,0,0.7-0.1,1.3-0.3c0.6-0.2,2-0.7,2-0.7s-1.2,0.6-1.9,0.9c-0.5,0.2-1.4,0.4-1.4,0.4
			l-0.4,1.3c0,0,1.3,1.9,2.3,2.6c0.1,0.1,0.2,0.1,0.2,0.1c1.4,1.6,2.9,3.2,4.3,4.7c0,0-1.4,0.4-2,0.8c-0.2,0.1-0.4,0.4-0.6,0.6
			c0.1-0.1,0.2-0.2,0.3-0.3c1.1-0.7,2.5-0.8,2.5-0.8h0.1c1.1,1.3,2.2,2.5,3.3,3.7c-0.6,0.3-0.7,0.6-0.7,0.6s-1.5,1.1-1.3,2.2
			c0.2,1,0.3,1.4,0.3,1.4l2-1.6c0,0,0,1.3,0.7,2.1c0.7,0.7,1.7,1.6,1.7,1.6s0.5-1.1,0.6-2c0.5,0.7,1,1.3,1.4,1.9L385,13
			c0,0-1.2-0.1-2.1,0.3c-0.9,0.3-1.7,0.8-1.7,0.8s1.1,1.3,1.9,1.8c0.8,0.5,1.2,0.7,1.2,0.7l-0.4,2.5c0,0,3.8-1.3,4-1.9
			c0.2-0.5,0-1.7-0.1-2.1c0,0-1.2,0-1.9,0c-0.7-0.1-1-0.2-1-0.2s1.8,0.1,2.3,0.1c0.4,0,0.6,0,0.6,0l0,0c0.6,0.9,1.2,1.8,1.9,2.8
			c0.1,0.1,0.1,0.3,0.2,0.3c0,0,1.5-0.6,2.4-0.7c0.9-0.2,1.3-0.2,1.3-0.2s-2.3,0.6-2.9,0.8c-0.5,0.2-0.8,0.3-0.8,0.3s-0.6,2.5-0.5,3
			c0.1,0.3,1.8,0.7,3.2,1c0.3,0.5,0.7,1,1.1,1.6c0,0,0,0.6-0.2,1.1c0.2-0.3,0.5-0.8,0.5-0.8c1.2,1.8,2.4,3.6,3.7,5.5
			c-0.1-0.1-0.1-0.2-0.2-0.2c-0.7-0.6-1.5-0.8-2.2-0.2c-0.7,0.6-1.4,1.9-1.8,2.5s-0.4,1.1-0.4,1.1s0.9,0.4,1.5,0.5s0.8,0,0.8,0
			s-0.8,1-1.2,2.8c-0.5,1.7,0.6,4.1,0.6,4.1s2.4-0.5,3.7-2c1-1.1,1.6-2.3,1.6-2.3s0.7,0.7,1.3,1.1c0.6,0.4,1.1,0.6,1.1,0.6
			s0.1-0.3,0.3-0.8c0.3,0.4,0.6,0.8,0.9,1.2c-0.1,0.4-0.1,0.7,0,0.8c0.3,0.5,1.3,1.1,1.6,1.3c0,0,0.8-1,1.3-1.4s0.8-0.6,0.8-0.6
			s-1.3,1.3-1.6,1.6c-0.3,0.3-0.4,0.5-0.4,0.5s0.6,1.8,0.8,2.2c0.1,0.1,0.3,0.1,0.7,0c0.2,0.3,0.5,0.6,0.7,0.9l0.1,0.1
			c0,0,0.1,0.3,0,0.6c0.2-0.1,0.3-0.2,0.3-0.2c0.7,0.9,1.5,1.7,2.1,2.3c-0.2,0-0.5,0.1-0.7,0.2c-0.5,0.2-1.5,0.9-1.5,0.9
			s0.5,0,1.2,0.2s1.2,1.2,1.2,1.2s-0.5,2.4-0.8,3c-0.3,0.5-0.8,1.1-0.8,1.1s1.1,0.1,2-0.2s2.6-1.3,2.6-1.3s0.1,0.1,0.5,0.4
			c0.4,0.3,0.9,1.6,0.9,1.6s0.2-0.4,0.4-0.9c0.1-0.3,0.1-1.1,0-1.7c1.8,1.5,3.7,2.9,5.6,4.3c-0.1,0-0.1,0-0.2,0
			c-0.6,0.2-2.3,1.2-2.3,1.2l0.9,0.7c0,0-0.4,0.4-0.6,1.1c-0.2,0.7-0.3,1-0.5,1.2c-0.3,0.2-0.3,0.2-0.3,0.2s1.2-0.1,2.1-0.7
			c0.9-0.6,1.4-1.2,1.4-1.2l0.8,0.9c0,0,0.5-1.3,0.6-1.8c0-0.1,0-0.1,0-0.2c0.5,0.3,0.9,0.6,1.4,0.9c-0.1,0.1-0.1,0.1-0.1,0.1
			s-0.3,1.3,0.5,1.6c0.5,0.2,1.9,0.3,2.8,0.4c0.7,0.4,1.4,0.9,2.1,1.3c-0.4,0-0.8,0-1,0.1c0,0,0,0.8-0.1,1.2s-0.1,0.6-0.1,0.6
			s0.1-1.2,0.1-1.4c0-0.3,0-0.4,0-0.4s-1-0.7-1.3-0.8s-1.5,2-1.5,2l1.5,0.4c0,0-0.1,0.7,0.1,1.3c0.2,0.6,0.4,1.1,0.4,1.1
			s0.9-0.7,1.2-1.1c0.3-0.5,0.5-0.7,0.5-0.7l1.6,0.3c0,0-0.5-1.6-0.9-2.3c1.5,0.8,2.8,1.5,4,1.9c6.2,2.5,5.8,2.9,5.5,4V67
			c0.1-0.1,0.2-0.3,0.2-0.5c0.1-0.5,0.2-0.8-0.1-1.2c0,0,0.6-0.2,0.8-0.4c0.1-0.1,0.1-0.2,0.1-0.3C440.5,65.4,439.6,65.4,439.6,65.4
			z M399.5,34.4c-0.2-0.3-0.6-0.8-0.6-0.8l-2.1,3.7l1.8-3.8c0,0-0.5,0-1,0c-0.5,0.1-1.6,0.3-1.6,0.3s1-0.3,1.6-0.5
			c0.4-0.1,1.1-0.1,1.1-0.1l0.5-0.9c0,0-0.2-0.4-0.5-1c0.3,0.4,0.5,0.8,0.8,1.2l-0.5,1c0,0,0.4,0.6,0.6,1.1s0.5,1.5,0.5,1.5
			S399.8,34.9,399.5,34.4z M413.2,49.5L410,53l3-3.5c0,0,0-0.2-0.1-0.6c0.3,0.2,0.5,0.5,0.8,0.7C413.4,49.5,413.2,49.5,413.2,49.5z
			 M422,56.1c0,0-0.5,0.8-0.9,1.2c-0.5,0.5-1.1,0.9-1.1,0.9s0.8-0.8,1.2-1.3c0.4-0.6,0.5-0.9,0.5-0.9s-0.1-0.2-0.2-0.3
			c0.2,0.1,0.4,0.3,0.6,0.4C422.1,56.1,422,56.1,422,56.1z M425.7,57.1c-0.4,0.1-0.7,0.3-0.9,0.4c-0.1-0.1-0.2-0.1-0.3-0.2
			c0.4-0.2,1.2-0.5,1.7-0.6c1-0.2,2.1-0.3,2.1-0.3S426.8,56.8,425.7,57.1z M440.2,63.5c-0.4,0-0.5,0.2-0.6,0.4
			c0.1-0.1,0.2-0.1,0.4-0.1c0.6,0.1,0.9,0.7,0.8,1.2c0,0,0,0,0.1-0.1C441.3,64.6,441,63.6,440.2,63.5z M438.9,64.1
			c0.2-0.3,0-1-0.5-1c-0.3,0-0.4,0.2-0.4,0.4c0.1,0,0.1,0,0.2,0C438.6,63.5,438.8,63.9,438.9,64.1C438.8,64.2,438.8,64.2,438.9,64.1
			z M439.5,64.6l0.2-0.3c0,0,0-0.1,0-0.3C439.4,64.1,439.5,64.6,439.5,64.6z M418.6,51.5l0.2-0.3c0,0-0.1-0.1-0.1-0.3
			C418.3,51.1,418.6,51.5,418.6,51.5z M405.2,46.1c0,0,0.1,0,0.1-0.1c0.2-0.2,0-0.3-0.1-0.5c-0.1,0-0.1,0-0.2,0.1
			C404.8,45.8,405.1,46,405.2,46.1z M405.2,45.3c-0.1,0.1-0.1,0.2,0,0.3c0.3,0,0.7,0.3,0.9,0.4c0.2,0.1,0.2-0.1,0.1-0.4
			C405.9,45.5,405.5,45.1,405.2,45.3z M404.9,46.1l-0.2,0.3c0,0,0.1,0.2,0.4-0.1c0.1-0.1,0.1-0.2,0-0.2
			C405,46.3,404.9,46.1,404.9,46.1z M438.4,67.1c-0.1-0.5,0.1-0.9,0.1-0.9l-0.2,0.3c0,0-0.2,0.4-0.1,0.9s1.3,0.9,1.6,0
			C439.4,67.9,438.5,67.5,438.4,67.1z M407.8,44.6c-0.7-0.1-0.6-0.9-1.2-0.8c-0.4,0.1-0.7,0.4-0.7,0.6c0.1-0.1,0.3-0.2,0.5-0.3
			c0.6-0.2,0.5,0.6,1.2,0.8c0.3,0.1,0.4-0.2,0.5-0.4C408,44.6,407.9,44.6,407.8,44.6z M405.9,45.1c0.2,0.2,0.3,0.4,0.3,0.6l0,0
			c0.3,0.1,0.2-0.6-0.2-0.9c-0.1-0.1-0.2-0.2-0.1-0.3C405.7,44.6,405.7,44.9,405.9,45.1z"/>
	</g>
	<g class="st1">
		<text transform="matrix(1 0 0 1 49.8728 37.2316)" class="st7 st4 st5">Like garden</text>
	</g>
	<line class="st6" x1="177" y1="163.5" x2="327" y2="163.5"/>
	<g class="st1">
		<g>
			<path class="st7" d="M148.3,66.2c-0.8-2-2.8-3.3-5-3.3h-6.4c-0.2,0-0.4,0-0.5,0c0.1-0.1,0.1-0.1,0.1-0.2c0.2-0.3,0.4-0.5,0.5-0.7
				c0.1-0.1,0.1-0.2,0.2-0.3c0.8-0.9,2.4-2.8,2.8-5.4c0.2-1.5-0.2-2.9-1.2-4.1c-0.9-1.1-2.2-1.7-3.4-1.7s-2.3,0.6-2.9,1.7
				c-0.1,0.2-0.2,0.4-0.3,0.6c-0.6,1.1-1.9,3.4-3.2,4.4c-1.4,1-2.7,2.5-4,3.8c-1.7,1.9-3.5,3.8-4.9,3.8c-1.1,0-2,0.9-2,2v13.8
				c0,1.1,0.9,2,2,2c1.5,0,4.8,1.3,7.3,2.2c1.9,0.7,3.5,1.3,4.6,1.6c0.3,0.1,0.7,0.1,1,0.2c1.2,0.3,2.7,0.6,4.1,0.6
				c2.2,0,4-0.8,5.1-2.4s2.5-5.6,4.2-11.1c0.1-0.4,0.2-0.8,0.3-1.1C149.3,69.7,148.7,67.2,148.3,66.2z M144.9,71.4
				c-1.4,4.4-3.2,10.5-4.4,12.1c-0.9,1.2-2.2,1.6-3.5,1.6c-1.5,0-3.2-0.5-4.7-0.8c-2.4-0.5-9.2-3.8-12.2-3.8V66.8
				c3.6,0,6.5-5.5,10-8c1.9-1.4,3.5-4.5,4.1-5.6c0.3-0.5,0.7-0.7,1.2-0.7c1.3,0,2.9,1.5,2.6,3.4c-0.4,2.6-2.4,4.4-2.7,4.9
				s-1.7,2-1.7,2.8c0,0.7,0.5,1.2,3.2,1.2c3.4,0,5.7,0,6.4,0C146,64.9,148.4,68.1,144.9,71.4z"/>
			<path class="st7" d="M107.4,68.4v12.8c0,1.6,1.3,2.9,2.9,2.9h3.4c1.1,0,1.9-0.9,1.9-1.9V65.5h-5.3
				C108.6,65.5,107.4,66.8,107.4,68.4z M111.4,78.4c0.7,0,1.3,0.6,1.3,1.3c0,0.7-0.6,1.3-1.3,1.3c-0.7,0-1.3-0.6-1.3-1.3
				C110.1,78.9,110.6,78.4,111.4,78.4z"/>
		</g>
	</g>
</g>
<g id="値段" class="st0">
	<g class="st1">
		<path class="st2" d="M390.7,26.8c0-0.3,0-0.6,0.1-0.9c-0.2,0.3-0.3,0.7-0.3,1C390.6,26.9,390.6,26.8,390.7,26.8z M391.2,27
			c0.2,0.1,0.4,0.2,0.4,0.4c0.4-0.2,0.1-0.6-0.3-0.7c-0.2-0.1-0.4,0-0.7,0.1c0,0.1,0,0.2,0,0.2C390.9,27,391.1,27,391.2,27z
			 M389.9,28l0.2-0.3c0-0.1,0-0.2,0-0.2C390,27.6,389.9,27.8,389.9,28z M390.1,27.4c0.1-0.1,0.3-0.2,0.4-0.3c0-0.1,0-0.1,0-0.2
			C390.3,27.1,390.1,27.2,390.1,27.4z M390.7,27c-0.1,0-0.1,0.1-0.2,0.1c0,0.5,0.2,0.8,0.6,0.7c0.4-0.1,0.5-0.3,0.5-0.5
			c-0.1,0-0.2,0.1-0.3,0.1C391,27.6,390.8,27.4,390.7,27z M393.5,25.8c-0.7,0.4-1.4-1-2.3-0.5c-0.2,0.1-0.4,0.4-0.5,0.6
			c0.1-0.1,0.2-0.2,0.3-0.3c0.8-0.5,1.6,0.9,2.3,0.5c0.2-0.1,0.4-0.4,0.5-0.7C393.8,25.6,393.6,25.7,393.5,25.8z M376.5-1.9
			c-0.1-0.2-0.1-0.5,0-0.7c-0.2,0.3-0.3,0.7-0.1,1c0.5,0.8,1.7,0.9,2,0.4c0-0.1,0.1-0.1,0.1-0.2C378-1,376.9-1.2,376.5-1.9z
			 M379-2.9C379-3,379-3,379-2.9c-0.1,0.1-0.1,0.2-0.2,0.3c-0.1,0.7,0.6,0.9,0.8,0.5c0-0.1,0-0.1,0-0.2C379.4-2.2,378.9-2.4,379-2.9
			z M374,6.3c0.3,0.6,1.6,1,2,0.1l0,0c-0.5,0.4-1.5,0.1-1.8-0.4s-0.1-1.8,0.4-2.8C373.9,4.1,373.7,5.8,374,6.3z M376.4,6.1
			c0.4-0.9-0.5-1.3-0.5-1.3l-0.3,0.3c0,0,0.9,0.4,0.5,1.3C376.2,6.4,376.3,6.3,376.4,6.1z M393.9,67.9L393.9,67.9
			c-0.4,0.2,0,0.6,0.3,0.6c0.1,0,0.2-0.1,0.2-0.3l0,0C394.2,68.2,394,68,393.9,67.9z M401.6,62.4c-0.2,0.1-0.3,0.3-0.4,0.5
			c0.1-0.1,0.1-0.1,0.2-0.2c0.8-0.5,1.7,0.5,1.7,1.2c0,0.1,0,0.2,0,0.2c0.1-0.2,0.2-0.4,0.2-0.5C403.3,62.9,402.4,61.8,401.6,62.4z
			 M401.2,64l0.1-0.3c0,0-0.3-0.5-0.1-0.9C400.8,63.4,401.2,64,401.2,64z M393.1,65.3c0.4,0.5,1,0.3,1,0.8v0.1
			c0.1-0.1,0.1-0.2,0.2-0.4c0.1-0.5-0.6-0.3-1-0.8c-0.1-0.1-0.1-0.2-0.1-0.2C392.9,64.9,392.8,65,393.1,65.3z M393.1,64.8
			c0.2-0.1,0.4-0.2,0.5-0.4c0,0,0.1-0.1,0.1-0.2C393.4,64.5,393,64.5,393.1,64.8z M393.6,66.8c0.1,0.3,0.4,0.6,0.6,0.7l0,0
			c-0.1,0-0.2,0-0.3,0c-0.1,0.1-0.1,0.2-0.1,0.3c0.1,0,0.3,0,0.5,0c0,0.1,0,0.1,0,0.2c0.1,0,0.1-0.1,0.1-0.2
			c0.4,0.1,0.8,0.4,0.8,0.4l0.2,0.1l-0.1-0.2c0,0-0.4-0.3-0.8-0.5c0-0.2,0-0.3-0.1-0.4c-0.2-0.2-0.6-0.5-0.6-0.7
			C393.7,66.7,393.6,66.7,393.6,66.8z M393.8,66.6L393.8,66.6c0.1-0.1,0.2-0.2,0.3-0.4C393.9,66.3,393.7,66.4,393.8,66.6z
			 M415.5,70.8c-0.1-0.3-0.2-0.4-0.2-0.4l1.9-2c0,0-4.2-1.1-4.7-0.6c-0.5,0.4-1,1.5-1.2,1.9c0,0,1.1,0.7,1.7,1.2
			c0.5,0.5,0.8,0.8,0.8,0.8s-1.6-1.2-2-1.5s-0.6-0.3-0.6-0.3l0,0v-0.1c-0.9-0.2-1.9-0.5-2.9-0.8c0-0.5-0.6-1.2-1.2-1.3
			c-0.7-0.1-1.6,0.2-1.6,0.2l-0.4,0.6c0,0,0.2,0.4,0.4,0.7c0.2,0.3,0.3,1,0.3,1s-0.3-0.6-0.4-1c-0.1-0.2-0.4-0.6-0.4-0.6l-1.3,2.4
			l1.2-2.5c0,0-0.3,0-0.7,0c-0.3,0-1.1,0.2-1.1,0.2s0.7-0.2,1.1-0.3c0.3-0.1,0.8-0.1,0.8-0.1l0.3-0.6c0,0-0.5-1.1-1-1.5
			s-1-0.5-1.4-0.1c-0.3,0.2-0.5,0.5-0.7,0.9c-0.6-0.2-1.1-0.4-1.7-0.7l0,0c1.2,0,2.5-1.2,2.7-2.2c-0.4,0.8-1.4,1.8-2.4,1.9
			c-0.3,0-1.2,0-1.2,0c-3.2-1.3-6.4-2.9-9.3-4.8c-0.1-0.3-0.1-0.5-0.1-0.5l-7.2-4.2l7.2,3.8c0,0,2.9-0.7,3.9-3.6c0.4-1,0-2-0.6-2.8
			s-2.1-2.3-2.1-2.3s0.2,0.9,0.1,2.1c-0.1,1.2-1.6,2.5-1.6,2.5s-4.3,0.1-5.4-0.3c-0.2-0.1-0.4-0.2-0.7-0.2c-1.2-1.5-2.5-3.8-3.8-6.8
			l0.7,0.8c0,0,1.2-2.9,1.5-4.3c0.3-1.4-0.7-2-1.2-2s-1.3,0-1.3,0s-1.1,1.9-2,2.9c-1.1,1.1-2.5,2.2-2.5,2.2s1.8-1.8,2.8-3.2
			c1-1.3,1.1-2.1,1.1-2.1s-0.7-1.9-2-1.5l0,0c-0.1-0.4-0.3-0.7-0.4-1.1c0.2,0.3,0.5,0.6,0.9,0.7c0.8,0,1,0.1,1,0.1l-0.7-1.7
			c0,0,0.9,0.3,1.5-0.1c0.6-0.3,1.4-0.9,1.4-0.9s-1-0.8-1.7-0.9c-0.7-0.1-1.3,0.1-1.3,0.1l0.6-1.7c0,0-1.4,0.4-1.7,0.4
			c-0.2,0.1-0.7,1.2-0.7,2c-0.1-0.2-0.2-0.5-0.2-0.7c0.9-1.5,1.6-3.2,0.7-4c-0.9-0.7-2.4-1.4-2.4-1.4s0,0,0,0.1
			c-0.1-0.2-0.1-0.4-0.2-0.6c0.2-0.7,0.6-3.1-0.3-4.2c-0.5-0.7-1.1-1.2-1.5-1.5c-0.1-0.3-0.2-0.5-0.2-0.8c0.5,0,1,0,1.4-0.1
			c0.5,0,0.8-0.2,0.8-0.2s-0.1-0.7-0.3-1.1c-0.2-0.4-0.4-0.5-0.4-0.5s0.9,0,2.2-0.4c1.2-0.4,2.2-2,2.2-2s-1.3-1.2-2.7-1.4
			c-1-0.2-2,0-2,0s0.1-0.7,0.1-1.2s-0.1-0.9-0.1-0.9s-1.6,0.3-2.7,0.9c-0.2,0.1-0.3,0.2-0.4,0.5c-0.1-0.5-0.3-1-0.4-1.5
			c0.3-0.3,0.7-0.6,1-0.9c1.1-1.2,2.9-4.3,2.9-4.3s0.2,0,1.2,0.1c0.9,0.1,2.8,1.7,2.8,1.7s0-0.8-0.2-1.7c-0.2-0.8-1.9-3.7-3.4-3.8
			c-1.5-0.2-3.1,0.9-3.1,0.9l-1.8,8.1l1.4-8c0,0-1.3-2-3.7-2.5c-0.2-0.5-0.3-1.1-0.5-1.6l2.3,0.8c0,0-0.9-5.7-1.7-6.2
			c-0.5-0.3-1.6-0.4-2.4-0.4c-0.2-0.5-0.3-0.9-0.4-1.4l0.2-1c0,0,0.7,0.5,1.5,0.6c0.7,0,1.8,0,1.8,0s-0.5-1-1.1-1.3
			s-1.3-0.5-1.3-0.5l1.4-0.8c0,0-1.5-0.4-1.8-0.4c-0.2,0-1,0.4-1.5,0.8c-0.1-0.3-0.2-0.5-0.3-0.8l-0.1-0.2l0,0
			c-0.1-0.3-0.2-0.6-0.4-0.9c-0.3-0.6-0.6-1.2-0.9-1.8c0.6-0.8,1.5-2.1,2-3.3c0.3-0.8-0.2-2.5-1.4-3.1c-1.1-0.6-2.9-0.4-2.9-0.4
			l-0.9,0.9c0,0,0.3,0.8,0.4,1.4c0.1,0.6,0.1,1.8,0.1,1.8s-0.1-1.2-0.3-1.9c-0.1-0.4-0.4-1.2-0.4-1.2l-3.5,3.5l3.3-3.8
			c0,0-0.6-0.2-1.1-0.3c-0.6-0.1-2-0.2-2-0.2s1.3,0,2,0c0.5,0,1.3,0.2,1.3,0.2l0.8-0.9c0,0-0.3-2.1-1-3.1c-0.6-0.9-1.4-1.3-2.4-0.9
			c-0.7,0.3-1.4,0.9-2,1.5c-4.2-3.7-8-5.7-8-5.7l-0.1,0.3c0,0,3.8,2.1,7.9,5.7c-0.2,0.2-0.4,0.4-0.6,0.6c-0.6,0.6-0.8,1.1-0.8,1.1
			s0.9,0.8,1.5,1c0.6,0.3,1,0.2,1,0.2s-1.2,0.9-2.3,2.8c-1.1,1.8-0.6,4.9-0.6,4.9s2.9,0.2,4.9-1c1.5-0.9,2.5-2.2,2.5-2.2
			s0.5,1,1.1,1.6s1,1,1,1s0.1-0.1,0.3-0.4c0.3,0.6,0.6,1.2,0.9,1.9c0,0.1,0.1,0.1,0.1,0.2c-0.5-0.4-1.2-0.9-1.9-0.4
			c-1,0.7-1.1,0.7-1.1,0.7l1.1,0.7c0,0-0.1,0.1-1.3,0.7c-1.2,0.6-2.4,0.4-2.4,0.4s2.7,0.9,3.4,0.8c0.8-0.1,1-0.2,1.3-0.4
			c0.2-0.2,0.9-0.9,1.2-1.2c0.1,0.1,0.1,0.3,0.2,0.4c-0.1,0.1-0.1,0.1-0.2,0.2c-0.4,0.5-0.2,0.8-0.2,0.8s-0.2,1,0.5,1.3
			c0.4,0.2,0.7,0.3,0.8,0.4c0.1,0.4,0.2,0.7,0.4,1.1c-0.2,0-0.3,0-0.4,0c0,0-0.3,1.8-0.6,2.7c-0.3,0.9-0.5,1.4-0.5,1.4
			s0.6-2.6,0.8-3.2c0.1-0.6,0.1-0.9,0.1-0.9s-2.1-1.9-2.7-2.1c-0.6-0.2-4,4.1-4,4.1l3.2,1.4c0,0-0.4,1.7-0.1,3s0.6,2.6,0.6,2.6
			s2.2-1.3,3.1-2.2s1.3-1.5,1.3-1.5l0.9,0.3c0.2,0.5,0.3,1.1,0.5,1.7c-0.2,0-0.4-0.1-0.7-0.1c-1.1,0-1.9,0.6-2.5,1.4
			s-1.5,2.7-1.5,2.7s0.8-0.4,2-0.8c1.2-0.3,2.9,0.8,2.9,0.8s1.4,4.1,1.4,5.2s-0.3,2.4-0.3,2.4s0.8-0.4,1.7-1.1
			c0.2,0.5,0.3,1.1,0.5,1.6c-0.1,0.4-0.2,0.9,0,1.2c0.1,0.3,0.4,0.6,0.6,0.9c0.1,0.3,0.2,0.6,0.2,0.8c0,0-1,1-1.8,0.8
			c0.3-0.1,0.4-0.4,0.5-0.6c-0.2,0.2-0.5,0.4-0.8,0.5l0,0c-0.6-0.4-0.6-0.9-0.5-1.2c-0.2,0.3-0.4,0.8,0.1,1.3c-0.1,0-0.1,0-0.2,0
			c-0.2-0.1-0.4-0.1-0.5-0.2l0.1-0.1v-0.1c-0.1,0.1-0.1,0.1-0.2,0.1c-0.2-0.2-0.2-0.4-0.2-0.6c0,0-0.1,0-0.1,0.1
			c-0.1,0.1-0.1,0.3,0,0.5c-0.1,0-0.2-0.1-0.3-0.1l-0.3-0.2l0.2,0.5c0.1,0.1,0.4,0.2,0.6,0.1c0.1,0.1,0.3,0.3,0.6,0.3
			c0.2,0,0.4,0,0.6,0c0.8,0.5,2.3-0.9,2.3-0.9v0.1c-0.2,0.4-0.5,1-0.5,1.4c-0.1,0.7,0.1,1.2,0.8,1.4c0.2,0.1,0.4,0.1,0.6,0.1
			c0.1,0.2,0.1,0.4,0.2,0.6c-0.3-0.2-0.4-0.3-0.4-0.3s-0.6,2.1-1.9,2.6c-1.4,0.5-3.1,0.5-3.1,0.5s0.2,2.4,1.3,3.3
			c1.1,0.9,1.8,1.3,1.8,1.3s-0.7,1.4-2,3.4c-1.2,2-3.4,4.7-3.4,4.7s3.7-0.1,6.2-1.1s3.3-1.9,3.3-1.9l0.4,2.7c0,0,0.8-1.8,1.7-3.3
			c0.4,1.2,0.8,2.4,1.3,3.6c-1.5,0.6-5.1,2.7-5.1,2.7l2.2,1.7c0,0-1,0.9-1.5,2.5s-0.6,2.3-1.3,2.7c-0.7,0.4-0.7,0.4-0.7,0.4
			s2.8-0.2,4.9-1.5s3.3-2.7,3.3-2.7l0.8,0.8c0.7,1.8,1.5,3.3,2.2,4.7c0,0-0.5,0.4-1.2,0.5s-1.6-0.8-1.7-1.2c0-0.1,0-0.2,0-0.3
			c-0.1,0.2-0.2,0.4-0.2,0.6c0.1,0.4,1,1.2,1.7,1.1c0.7-0.1,1.4-0.6,1.4-0.6c0.5,0.9,1,1.6,1.4,2.3c-0.6-0.3-1-0.5-1-0.5
			s0.3,2,1.1,3.4c0.8,1.4,3.2,4,3.2,4s-0.1,0.2-0.5,1.1c-0.4,0.9-2.5,2.2-2.5,2.2s0.8,0.2,1.6,0.3c0.9,0,4.1-0.6,4.7-2.1
			c0.3-0.8,0.3-1.6,0.3-2.3c1,0.7,2,1.3,3.1,1.9c0,0,0.3,0.5,0.3,0.8l0.1-0.1c0.1-0.1,0.2-0.4,0.2-0.4c2.7,1.4,5.4,2.6,8.1,3.6
			c-0.1,0.2-0.2,0.4-0.3,0.5c-0.2,0.4-0.2,0.7-0.2,0.7s0.6,0.3,1,0.3c0.4,0.1,0.6,0,0.6,0s-0.5,0.7-0.8,1.8
			c-0.3,1.1,0.4,2.7,0.4,2.7s1.6-0.3,2.4-1.3c0.7-0.7,1-1.5,1-1.5s0.4,0.5,0.9,0.7c0.4,0.2,0.7,0.4,0.7,0.4s0.5-1.2,0.7-2.3
			c0.9,0.3,1.8,0.5,2.6,0.7c-0.6,0.3-1.6,0.8-1.8,1c-0.3,0.3,1.7,4,1.7,4l1.9-1.8c0,0,1,0.8,2,1s2,0.3,2,0.3s-0.2-1.9-0.6-2.8
			c-0.1-0.2-0.2-0.4-0.3-0.6c6.8,1.4,8.1,0.8,8.1,0.8l0.1-0.3C423.9,71.6,422.6,72.2,415.5,70.8z M371.8,22l-0.7,0.1
			c0,0,0,0-0.1,0.1c-0.1-0.2-0.1-0.4-0.2-0.6c0.1,0.1,0.2,0.2,0.2,0.2l0.8-0.1c0,0,0.2-0.5,0.4-0.8c0.2-0.3,0.7-0.9,0.7-0.9
			s-0.4,0.6-0.6,1c-0.1,0.2-0.3,0.7-0.3,0.7l3-0.3l-3,0.5c0,0,0.2,0.3,0.4,0.6c0.2,0.3,0.8,0.8,0.8,0.8s-0.6-0.5-0.9-0.8
			C372.1,22.4,371.8,22,371.8,22z M371.9,36.6c-1.7,1.9-4.5,3.2-4.5,3.2s3.3-1.9,4.2-3.4c1.2-1.8,2-3.7,2.2-4.2
			c0.1,0.2,0.1,0.4,0.2,0.6C373.7,33.7,373.1,35.2,371.9,36.6z M379.6,51.7c0.5,0.2,0.3,0.8,0.3,0.8l0.1-0.3c0,0,0.2-0.5-0.3-0.8
			c-0.4-0.2-0.7,0.2-0.8,0.5C379.1,51.8,379.3,51.6,379.6,51.7z M367.7,22.5c0,0,0.1-0.1,0.1-0.2c0.2-0.4-0.3-0.7-0.5-0.5
			c0,0.1-0.1,0.1-0.1,0.2C367.4,21.9,367.7,22.1,367.7,22.5z M369.5,22.2c0,0.1,0,0.2,0,0.3c0.1-0.2,0.2-0.4,0.1-0.6
			c-0.2-0.6-1.1-0.8-1.3-0.5c-0.1,0.1-0.1,0.2-0.2,0.3c0,0,0,0,0-0.1C368.5,21.3,369.3,21.6,369.5,22.2z M431.9,64
			c0,0.6,0.6,1.4,0.6,1.4s0,0-0.2-0.3s0.1-1.2,0.1-1.2l0.1,0.4c0,0,0.2-0.3,0.2-0.8s-0.3-1-0.3-1S431.9,63.4,431.9,64z M384.1,49.5
			c-1.1,0.1-2.8,1.7-2.8,1.7l0.4,0.8c0,0,0.3,0.5,0.8,0.7c0.5,0.3,1,1,3.3,0.1s2.6-3,2.6-3s-0.6,0.1-1.5,1.2
			c-0.9,1.1-2.6,0.3-2.6,0.3l1.2-1.8C385.5,49.4,385.2,49.3,384.1,49.5z M437.8,63.9l0.2-0.3v-0.1C437.7,63.6,437.8,63.9,437.8,63.9
			z M418.9,50.5c-0.2,0.1-0.2,0.2-0.2,0.4l0,0c0.4-0.3,0.8,0.2,0.8,0.6v0.1c0.1-0.2,0.2-0.3,0.2-0.4
			C419.7,50.7,419.3,50.2,418.9,50.5z M439.6,65.4c-0.3-0.2-0.6-0.4-1.1-0.7c0,0,0.2-0.1,0.2-0.2c0.1-0.1,0.1-0.2,0.1-0.3
			c-0.3,0.2-1,0.1-1,0.1c-0.8-0.4-1.8-0.8-3.2-1.4c-1.7-0.7-3.8-1.8-6-3.1c0.1,0,0.2,0,0.2,0l-0.5-1.7c0,0,0.9-0.1,1.7-0.8
			c0.8-0.7,1.2-1,1.7-1s0.5,0,0.5,0s-1.5-0.9-3.1-1s-2.7,0.2-2.7,0.2l-0.3-1.8c0,0-1.7,1.1-2.4,1.7c-0.3,0.3-0.4,0.6-0.4,0.9
			c-1.8-1.2-3.5-2.5-5.2-3.8h0.1c0.1,0,0.1,0,0.2,0c0.6,0,1.1-0.7,1.3-1.1c-0.2,0.3-0.7,0.7-1.1,0.7c-0.6,0-1.2-0.3-1.2-0.3h-0.1
			c-0.6-0.5-1.2-1-1.8-1.4c-0.1-0.2-0.2-0.4-0.4-0.5c-0.2-0.1-0.3-0.2-0.5-0.3c-0.6-0.5-1.2-1.1-1.8-1.6c-0.2-0.4-0.6-0.9-1.1-1.3
			c-0.1-0.1-0.3-0.1-0.4-0.2c-0.1-0.1-0.2-0.2-0.3-0.3c-0.9-0.9-2-2.1-3.2-3.6c1.1-0.3,2.7-0.9,2.7-0.9l-1.4-2c0,0,0.8-0.8,1.1-1.7
			c0.3-0.9,0.5-1.8,0.5-1.8s-1.7,0-2.6,0.2s-1.3,0.4-1.3,0.4l-1.6-2c0,0-0.7,1.8-1,3c-0.3-0.4-0.6-0.8-0.9-1.2
			c0.3-0.7,0.6-1.7,0.7-2.6c0.1-0.7-0.8-2-1.8-2.2c-0.8-0.1-1.7,0.1-2.1,0.2c-0.7-0.9-1.3-1.9-2-2.9c0.6,0.3,1.5,0.5,2-0.1
			c0.8-0.9,0.8-1,0.8-1l-1.3-0.3c0,0,0.1-0.1,1.1-1s2.2-1,2.2-1s-2.8-0.1-3.5,0.2c-0.7,0.3-0.9,0.5-1.1,0.8c-0.2,0.2-0.6,1-0.8,1.5
			c-1.3-1.9-2.5-3.8-3.8-5.6c0.8,0.1,1.3,0.2,1.3,0.2l-0.3-3.1c0,0,1.5-0.4,2.4-1.2c0.9-0.8,1.7-1.6,1.7-1.6s-1.9-1.2-3.1-1.5
			c-1.1-0.3-1.7-0.4-1.7-0.4l-0.5-3.3c0,0-4.1,3.2-4.1,4.1c0,0.2,0,0.3,0.1,0.5c-0.3-0.5-0.6-1-1-1.4c0.3-0.5,0.8-1.4,0.9-1.7
			c0.1-0.4-3.3-2.2-3.3-2.2l-0.1,0.3c-0.4-0.6-0.9-1.3-1.5-2V9.2c-0.2-0.9-0.6-1.8-0.6-1.8l2.5,0.2c0,0-1-1.8-1.2-2.1
			c-0.2-0.3-2.4-0.5-3.5-0.1c-0.1,0-0.2,0.1-0.3,0.1c-1-1.2-2.1-2.5-3.3-3.8c0.7,0,1.8,0.1,2.4-0.2c0.9-0.4,1.9-2.1,1.9-2.1
			s0,0-0.3,0.5s-2.2,0.7-2.2,0.7l0.6-0.4c0,0-0.6-0.1-1.4,0.2c-0.5,0.2-1,0.6-1.3,0.9c-1-1.1-1.9-2.2-2.9-3.2c0,0,1.4-1.7,2.3-1.8
			c-0.3,0.2-0.5,0.5-0.6,0.8c0.2-0.3,0.6-0.6,1-0.7l0,0c1.1,0.5,1.1,1.4,0.9,1.9l0.1-0.1c0.2-0.4,0.4-1.3-0.6-1.9c0.1,0,0.2,0,0.3,0
			c0.4,0,0.7,0.1,0.9,0.2c0,0.1-0.1,0.1-0.1,0.2c0.1-0.1,0.1-0.1,0.2-0.2c0.3,0.2,0.5,0.6,0.5,0.8c0.1,0,0.1-0.1,0.1-0.1
			c0.1-0.2,0-0.5-0.2-0.8c0.2,0,0.4,0,0.5,0.1l0.2-0.3c-0.2-0.1-0.6-0.1-0.9,0c-0.2-0.2-0.5-0.3-1-0.3c-0.3,0-0.6,0.1-0.9,0.2
			c-1.1-0.4-2.9,1.8-2.9,1.8c-0.3-0.3-0.5-0.6-0.8-0.9c0.7,0.1,1.3,0,1.8-0.6c0.8-0.9,1.4-2.7,1.7-3.6c0.3-0.9,0.2-1.5,0.2-1.5
			s-1.2-0.3-2-0.3c-0.7,0-1.1,0.2-1.1,0.2s0.7-1.5,1-3.8c0.2-2.3-1.6-5.1-1.6-5.1s-2.9,1.1-4.3,3.3c-1,1.6-1.5,3.3-1.5,3.3
			s-1-0.7-1.9-1.1c-0.9-0.3-1.5-0.5-1.5-0.5s0,0.1,0,0.2c-0.3-0.3-0.6-0.7-0.9-1l-0.3,0.3c0.3,0.3,0.7,0.7,1.1,1.1
			c-0.2,1-0.5,2.8-0.5,4.4c0,0.9,1.4,2.4,2.8,2.4s3-0.9,3-0.9l0.5-1.4c0,0-0.6-0.6-1-1.2c-0.4-0.6-1-1.7-1-1.7s0.7,1.1,1.1,1.7
			c0.3,0.4,0.9,0.9,0.9,0.9l1.8-5.1l-1.5,5.2c0,0,0.7-0.1,1.3-0.3c0.6-0.2,2-0.7,2-0.7s-1.2,0.6-1.9,0.9c-0.5,0.2-1.4,0.4-1.4,0.4
			l-0.4,1.3c0,0,1.3,1.9,2.3,2.6c0.1,0.1,0.2,0.1,0.2,0.1c1.4,1.6,2.9,3.2,4.3,4.7c0,0-1.4,0.4-2,0.8c-0.2,0.1-0.4,0.4-0.6,0.6
			c0.1-0.1,0.2-0.2,0.3-0.3c1.1-0.7,2.5-0.8,2.5-0.8h0.1c1.1,1.3,2.2,2.5,3.3,3.7c-0.6,0.3-0.7,0.6-0.7,0.6s-1.5,1.1-1.3,2.2
			c0.2,1,0.3,1.4,0.3,1.4l2-1.6c0,0,0,1.3,0.7,2.1c0.7,0.7,1.7,1.6,1.7,1.6s0.5-1.1,0.6-2c0.5,0.7,1,1.3,1.4,1.9L385,13
			c0,0-1.2-0.1-2.1,0.3c-0.9,0.3-1.7,0.8-1.7,0.8s1.1,1.3,1.9,1.8c0.8,0.5,1.2,0.7,1.2,0.7l-0.4,2.5c0,0,3.8-1.3,4-1.9
			c0.2-0.5,0-1.7-0.1-2.1c0,0-1.2,0-1.9,0c-0.7-0.1-1-0.2-1-0.2s1.8,0.1,2.3,0.1c0.4,0,0.6,0,0.6,0l0,0c0.6,0.9,1.2,1.8,1.9,2.8
			c0.1,0.1,0.1,0.3,0.2,0.3c0,0,1.5-0.6,2.4-0.7c0.9-0.2,1.3-0.2,1.3-0.2s-2.3,0.6-2.9,0.8c-0.5,0.2-0.8,0.3-0.8,0.3s-0.6,2.5-0.5,3
			c0.1,0.3,1.8,0.7,3.2,1c0.3,0.5,0.7,1,1.1,1.6c0,0,0,0.6-0.2,1.1c0.2-0.3,0.5-0.8,0.5-0.8c1.2,1.8,2.4,3.6,3.7,5.5
			c-0.1-0.1-0.1-0.2-0.2-0.2c-0.7-0.6-1.5-0.8-2.2-0.2c-0.7,0.6-1.4,1.9-1.8,2.5s-0.4,1.1-0.4,1.1s0.9,0.4,1.5,0.5s0.8,0,0.8,0
			s-0.8,1-1.2,2.8c-0.5,1.7,0.6,4.1,0.6,4.1s2.4-0.5,3.7-2c1-1.1,1.6-2.3,1.6-2.3s0.7,0.7,1.3,1.1c0.6,0.4,1.1,0.6,1.1,0.6
			s0.1-0.3,0.3-0.8c0.3,0.4,0.6,0.8,0.9,1.2c-0.1,0.4-0.1,0.7,0,0.8c0.3,0.5,1.3,1.1,1.6,1.3c0,0,0.8-1,1.3-1.4s0.8-0.6,0.8-0.6
			s-1.3,1.3-1.6,1.6c-0.3,0.3-0.4,0.5-0.4,0.5s0.6,1.8,0.8,2.2c0.1,0.1,0.3,0.1,0.7,0c0.2,0.3,0.5,0.6,0.7,0.9l0.1,0.1
			c0,0,0.1,0.3,0,0.6c0.2-0.1,0.3-0.2,0.3-0.2c0.7,0.9,1.5,1.7,2.1,2.3c-0.2,0-0.5,0.1-0.7,0.2c-0.5,0.2-1.5,0.9-1.5,0.9
			s0.5,0,1.2,0.2s1.2,1.2,1.2,1.2s-0.5,2.4-0.8,3c-0.3,0.5-0.8,1.1-0.8,1.1s1.1,0.1,2-0.2s2.6-1.3,2.6-1.3s0.1,0.1,0.5,0.4
			c0.4,0.3,0.9,1.6,0.9,1.6s0.2-0.4,0.4-0.9c0.1-0.3,0.1-1.1,0-1.7c1.8,1.5,3.7,2.9,5.6,4.3c-0.1,0-0.1,0-0.2,0
			c-0.6,0.2-2.3,1.2-2.3,1.2l0.9,0.7c0,0-0.4,0.4-0.6,1.1c-0.2,0.7-0.3,1-0.5,1.2c-0.3,0.2-0.3,0.2-0.3,0.2s1.2-0.1,2.1-0.7
			c0.9-0.6,1.4-1.2,1.4-1.2l0.8,0.9c0,0,0.5-1.3,0.6-1.8c0-0.1,0-0.1,0-0.2c0.5,0.3,0.9,0.6,1.4,0.9c-0.1,0.1-0.1,0.1-0.1,0.1
			s-0.3,1.3,0.5,1.6c0.5,0.2,1.9,0.3,2.8,0.4c0.7,0.4,1.4,0.9,2.1,1.3c-0.4,0-0.8,0-1,0.1c0,0,0,0.8-0.1,1.2s-0.1,0.6-0.1,0.6
			s0.1-1.2,0.1-1.4c0-0.3,0-0.4,0-0.4s-1-0.7-1.3-0.8s-1.5,2-1.5,2l1.5,0.4c0,0-0.1,0.7,0.1,1.3c0.2,0.6,0.4,1.1,0.4,1.1
			s0.9-0.7,1.2-1.1c0.3-0.5,0.5-0.7,0.5-0.7l1.6,0.3c0,0-0.5-1.6-0.9-2.3c1.5,0.8,2.8,1.5,4,1.9c6.2,2.5,5.8,2.9,5.5,4V67
			c0.1-0.1,0.2-0.3,0.2-0.5c0.1-0.5,0.2-0.8-0.1-1.2c0,0,0.6-0.2,0.8-0.4c0.1-0.1,0.1-0.2,0.1-0.3C440.5,65.4,439.6,65.4,439.6,65.4
			z M399.5,34.4c-0.2-0.3-0.6-0.8-0.6-0.8l-2.1,3.7l1.8-3.8c0,0-0.5,0-1,0c-0.5,0.1-1.6,0.3-1.6,0.3s1-0.3,1.6-0.5
			c0.4-0.1,1.1-0.1,1.1-0.1l0.5-0.9c0,0-0.2-0.4-0.5-1c0.3,0.4,0.5,0.8,0.8,1.2l-0.5,1c0,0,0.4,0.6,0.6,1.1s0.5,1.5,0.5,1.5
			S399.8,34.9,399.5,34.4z M413.2,49.5L410,53l3-3.5c0,0,0-0.2-0.1-0.6c0.3,0.2,0.5,0.5,0.8,0.7C413.4,49.5,413.2,49.5,413.2,49.5z
			 M422,56.1c0,0-0.5,0.8-0.9,1.2c-0.5,0.5-1.1,0.9-1.1,0.9s0.8-0.8,1.2-1.3c0.4-0.6,0.5-0.9,0.5-0.9s-0.1-0.2-0.2-0.3
			c0.2,0.1,0.4,0.3,0.6,0.4C422.1,56.1,422,56.1,422,56.1z M425.7,57.1c-0.4,0.1-0.7,0.3-0.9,0.4c-0.1-0.1-0.2-0.1-0.3-0.2
			c0.4-0.2,1.2-0.5,1.7-0.6c1-0.2,2.1-0.3,2.1-0.3S426.8,56.8,425.7,57.1z M440.2,63.5c-0.4,0-0.5,0.2-0.6,0.4
			c0.1-0.1,0.2-0.1,0.4-0.1c0.6,0.1,0.9,0.7,0.8,1.2c0,0,0,0,0.1-0.1C441.3,64.6,441,63.6,440.2,63.5z M438.9,64.1
			c0.2-0.3,0-1-0.5-1c-0.3,0-0.4,0.2-0.4,0.4c0.1,0,0.1,0,0.2,0C438.6,63.5,438.8,63.9,438.9,64.1C438.8,64.2,438.8,64.2,438.9,64.1
			z M439.5,64.6l0.2-0.3c0,0,0-0.1,0-0.3C439.4,64.1,439.5,64.6,439.5,64.6z M418.6,51.5l0.2-0.3c0,0-0.1-0.1-0.1-0.3
			C418.3,51.1,418.6,51.5,418.6,51.5z M405.2,46.1c0,0,0.1,0,0.1-0.1c0.2-0.2,0-0.3-0.1-0.5c-0.1,0-0.1,0-0.2,0.1
			C404.8,45.8,405.1,46,405.2,46.1z M405.2,45.3c-0.1,0.1-0.1,0.2,0,0.3c0.3,0,0.7,0.3,0.9,0.4c0.2,0.1,0.2-0.1,0.1-0.4
			C405.9,45.5,405.5,45.1,405.2,45.3z M404.9,46.1l-0.2,0.3c0,0,0.1,0.2,0.4-0.1c0.1-0.1,0.1-0.2,0-0.2
			C405,46.3,404.9,46.1,404.9,46.1z M438.4,67.1c-0.1-0.5,0.1-0.9,0.1-0.9l-0.2,0.3c0,0-0.2,0.4-0.1,0.9s1.3,0.9,1.6,0
			C439.4,67.9,438.5,67.5,438.4,67.1z M407.8,44.6c-0.7-0.1-0.6-0.9-1.2-0.8c-0.4,0.1-0.7,0.4-0.7,0.6c0.1-0.1,0.3-0.2,0.5-0.3
			c0.6-0.2,0.5,0.6,1.2,0.8c0.3,0.1,0.4-0.2,0.5-0.4C408,44.6,407.9,44.6,407.8,44.6z M405.9,45.1c0.2,0.2,0.3,0.4,0.3,0.6l0,0
			c0.3,0.1,0.2-0.6-0.2-0.9c-0.1-0.1-0.2-0.2-0.1-0.3C405.7,44.6,405.7,44.9,405.9,45.1z"/>
	</g>
	<text transform="matrix(1 0 0 1 9.8728 36.7135)" class="st3 st4 st8">How much Garden</text>
	<text transform="matrix(1 0 0 1 236.9728 37.7135)" class="st3 st9 st8">?</text>
	<line class="st6" x1="177" y1="163.5" x2="327" y2="163.5"/>
	<text transform="matrix(1 0 0 1 -92.1272 -49.4351)" class="st3 st4 st5">Model Garden</text>
	<g class="st1">
		<g>
			<polygon class="st7" points="151.4,62.9 151.4,65.6 120.5,88.3 103.3,79.4 103.3,77 120.5,85.8 			"/>
			<polygon class="st7" points="151.4,69 151.5,71.6 120.6,94.4 103.3,85.5 103.3,83.1 120.5,91.9 			"/>
			<path class="st7" d="M134.4,59.8c0.1-0.1,0.2-0.2,0.4-0.2c0.1-0.1,0.3-0.1,0.5-0.1s0.3,0,0.5,0c0.1,0,0.3,0.1,0.4,0.1
				c0.1,0.1,0.2,0.1,0.3,0.2c0.1,0.1,0.1,0.2,0.1,0.3s0,0.2-0.1,0.3s-0.1,0.2-0.3,0.3c-0.1,0.1-0.2,0.2-0.4,0.2
				c-0.1,0.1-0.3,0.1-0.5,0.1s-0.3,0-0.5,0c-0.1,0-0.3-0.1-0.4-0.1c-0.1-0.1-0.2-0.1-0.3-0.2c-0.1-0.1-0.1-0.2-0.1-0.3
				s0-0.2,0.1-0.3C134.2,59.9,134.3,59.8,134.4,59.8z"/>
			<path class="st7" d="M118.6,71.3c0.1-0.1,0.2-0.2,0.4-0.2c0.1-0.1,0.3-0.1,0.5-0.1s0.3,0,0.5,0c0.1,0,0.3,0.1,0.4,0.1
				c0.1,0.1,0.2,0.1,0.3,0.2c0.1,0.1,0.1,0.2,0.1,0.3c0,0.1,0,0.2-0.1,0.3c-0.1,0.1-0.1,0.2-0.3,0.3c-0.1,0.1-0.2,0.2-0.4,0.2
				c-0.1,0.1-0.3,0.1-0.5,0.1s-0.3,0-0.5,0c-0.1,0-0.3-0.1-0.4-0.1c-0.1-0.1-0.2-0.1-0.3-0.2c-0.1-0.1-0.1-0.2-0.1-0.3
				c0-0.1,0-0.2,0.1-0.3C118.4,71.5,118.4,71.4,118.6,71.3z"/>
			<path class="st7" d="M103.2,73l31-22.6l17.2,8.6l-31,22.7L103.2,73z M144.6,57.9l-7.3-3.7c-0.4,0.2-0.9,0.4-1.3,0.5
				c-0.5,0.1-1,0.2-1.4,0.3c-0.5,0-1,0-1.4,0c-0.5-0.1-0.9-0.2-1.3-0.3l-8,5.9c0.8-0.2,1.6-0.3,2.4-0.3s1.7,0,2.5,0.1
				s1.7,0.2,2.4,0.5c0.8,0.2,1.6,0.5,2.3,0.9s1.3,0.8,1.8,1.2s0.9,0.9,1.2,1.4c0.3,0.5,0.5,1,0.6,1.5s0.1,1-0.1,1.5l8-5.9
				c-0.3-0.2-0.6-0.5-0.8-0.7c-0.2-0.3-0.3-0.6-0.3-0.9c0-0.3,0-0.6,0.2-0.9C144.1,58.5,144.3,58.2,144.6,57.9 M123,77.3l8.1-5.9
				c-0.8,0.2-1.6,0.3-2.4,0.3c-0.8,0-1.7,0-2.5-0.1s-1.7-0.2-2.5-0.5c-0.8-0.2-1.6-0.5-2.3-0.9c-0.7-0.4-1.3-0.8-1.8-1.2
				c-0.5-0.4-0.9-0.9-1.2-1.4c-0.3-0.5-0.5-1-0.6-1.5s-0.1-1,0.1-1.5l-8.1,5.9c0.3,0.2,0.6,0.5,0.8,0.7c0.2,0.3,0.3,0.6,0.3,0.9
				s0,0.6-0.2,0.9c-0.1,0.3-0.3,0.6-0.6,0.9l7.3,3.7c0.4-0.2,0.9-0.4,1.3-0.5c0.5-0.1,1-0.2,1.5-0.3c0.5,0,1,0,1.4,0
				C122.1,77.1,122.6,77.2,123,77.3 M131.9,67.3l-1.8-0.9l2.4-1.7l-0.2-0.1l-1.2-0.6l-2.4,1.7l-0.9-0.4l-0.1-0.4l2.1-1.5l-0.3-0.1
				l-0.8-0.4l-0.3-0.1l-1.3,0.9l-0.7-1.7l-0.2,0.1l-1.1,0.8l-0.2,0.1l0.9,2.3l-3.8-0.1l-0.2,0.1l-1.1,0.8l-0.2,0.1l2.8,0.1l-1.3,0.9
				l0.3,0.1l0.8,0.4l0.3,0.1l2.1-1.6h0.6l0.9,0.4l-2.4,1.7l1.2,0.6L126,69l2.4-1.7l1.8,0.9L131.9,67.3"/>
		</g>
	</g>
	
		<text transform="matrix(1 0 0 1 -134.3393 -23.4417)" class="st12" style="font-family:'KozGoPr6N-Heavy-83pv-RKSJ-H'; font-size:7.8976px;">mini</text>
	
		<text transform="matrix(1 0 0 1 -117.6393 -22.3532)" class="st12" style="font-family:'KozGoPr6N-Heavy-83pv-RKSJ-H'; font-size:5.1136px;">・・・</text>
	<path class="st12" d="M-106.1-32.2c-1.4-2.9-3.7-5.3-6.5-7s-6.2-2.6-9.8-2.6c-4.8,0-9.2,1.7-12.4,4.6c-1.6,1.4-2.9,3.1-3.9,5.1
		c-0.9,1.9-1.4,4.1-1.4,6.3c0,2.9,0.8,5.6,2.3,7.9c1.2,2,2.9,3.6,4.9,5l-3,7.4l2.1-0.3c7.4-0.9,14.5-3.7,17.9-5.2
		c3.2-1.1,6-3.1,8-5.6c2-2.6,3.2-5.7,3.2-9.2C-104.7-28.1-105.2-30.3-106.1-32.2z M-109.7-18.5c-1.7,2.1-4.1,3.9-6.9,4.9l0,0l0,0
		c-2.9,1.3-8.8,3.6-15.1,4.7l2.1-5.3l-1-0.6c-2.1-1.2-3.8-2.8-5-4.7s-1.8-4-1.8-6.3c0-1.8,0.4-3.5,1.1-5c1.1-2.3,3-4.4,5.5-5.8
		c2.4-1.5,5.4-2.3,8.6-2.3c4.3,0,8.1,1.5,10.9,4c1.4,1.2,2.5,2.6,3.2,4.2c0.7,1.6,1.1,3.2,1.1,5C-107.1-23.2-108.1-20.7-109.7-18.5z
		"/>
</g>
<g>
	<path class="st13" d="M112.8,67.4L112.8,67.4L112.8,67.4z"/>
	<path class="st13" d="M148.9,53.4L148.9,53.4L148.9,53.4z"/>
	<path class="st13" d="M163.5,19.8c-3.9-3.9-9.3-6.3-15.2-6.3s-11.3,2.4-15.2,6.3s-6.3,9.3-6.3,15.2c0,0.6,0,1.7,0,2.7
		c0,0.5,0,1,0,1.3s0,0.6,0,0.6l0,0l0.4,11c-0.3-0.3-0.7-0.7-1.3-1.3c-0.9-0.9-2.1-2-3.2-3c-0.1-0.1-0.2-0.2-0.2-0.3
		c-0.2-0.3-0.5-0.7-0.8-1c-0.4-0.5-0.9-0.9-1.2-1.3l0,0c0.1-0.8,0.2-1.5,0.2-2.3c0-0.6,0-1.1-0.2-1.7c-0.1-0.4-0.3-0.8-0.5-1.2
		c-0.3-0.6-0.8-1.2-1.4-1.6c-0.6-0.4-1.3-0.7-2.1-0.8l0,0c-0.2,0-0.5-0.1-0.7-0.1c-0.4,0-0.8,0.1-1.1,0.2c-0.6,0.2-1.2,0.5-1.7,0.8
		c-0.7,0.5-1.4,1.2-1.9,1.9c-0.3,0.4-0.5,0.7-0.7,1.1c-0.1,0.3-0.3,0.6-0.4,0.9c-1.5,0.3-2.8,0.9-4,1.6c-1.1,0.7-2,1.5-2.8,2.3
		c-1.2,1.3-2.2,2.7-3.1,4.1c-0.8,1.3-1.5,2.5-2.3,3.6c-0.1,0.1-0.2,0.1-0.4,0.2c-0.4,0.3-1,0.7-1.5,1.4c-0.2,0.3-0.4,0.7-0.6,1.2
		c-0.1,0.5-0.2,1-0.2,1.5c0,0.8,0.2,1.7,0.6,2.6c0.2,0.6,0.5,1.1,0.9,1.6c0.6,0.9,1.4,1.6,2.2,2.1c0.7,0.4,1.4,0.6,2.1,0.8
		c1.1,0.3,2.3,0.4,3.7,0.5c1.4,0.1,2.9,0.1,4.6,0.2c0.3,0,0.8,0,1.3,0.1c0.1,0,0.3,0,0.5,0l-0.5,0.6l0,0c-0.1,0.1-0.2,0.1-0.3,0.1
		h-0.1l-4.1,1.1l0,0c-0.4,0.1-0.7,0.3-1.1,0.5c-0.5,0.3-1.1,0.7-1.5,1.3c-0.2,0.3-0.4,0.6-0.6,1c-0.1,0.4-0.2,0.8-0.2,1.3
		c0,0.3,0,0.6,0.1,0.9c0.1,0.5,0.4,0.9,0.7,1.3c0.4,0.5,1,0.9,1.5,1.3c0.3,0.2,0.6,0.3,0.9,0.4s0.7,0.2,1.1,0.2h0.1l4.3,0.1
		c-0.1,0.4-0.1,0.8-0.1,1.3c0,0.9,0.1,1.7,0.3,2.6c0.1,0.4,0.2,0.7,0.3,1.1c-0.4,0.2-0.8,0.3-1.1,0.5c-0.6,0.3-1.1,0.7-1.5,1
		c-0.6,0.6-1.1,1.2-1.3,1.9c-0.3,0.7-0.4,1.3-0.4,1.9c0,0.9,0.2,1.6,0.4,2.1c0.2,0.5,0.4,0.9,0.4,0.9l0.5,0.8H133l0.5-0.8
		c0-0.1,0.4-0.7,0.8-1.9c1.7-0.4,3.3-1.2,5-2.4c2.9-2.1,5.7-5.2,7.8-9c2.1-3.9,3.5-8.5,3.5-13.7c0-1.5-0.1-3-0.4-4.5
		c0.3,0,0.6-0.1,0.8-0.1l0,0h0.1c5.3-0.7,10-3.3,13.3-7.1c3.4-3.8,5.4-8.8,5.4-14.3C169.8,29.1,167.4,23.7,163.5,19.8z M162,47.2
		c-2.9,3.2-6.8,5.5-11.3,6.1c-0.4,0.1-0.8,0.1-1.2,0.1l0,0l0,0c0,0,0,0-0.1,0l0,0c-0.1,0-0.3,0-0.5,0l0,0c-0.1,0-0.1,0-0.1,0l0,0
		c-0.2,0-0.4,0-0.6,0c-0.1,0-0.2,0-0.4,0c-1.7-0.3-3.2-1.1-4.3-2.1c-1.1-1.1-2-2.5-2.4-4.2c-0.2-0.6-0.3-1.3-0.3-1.9
		c0-1.1,0.2-2.2,0.7-3.2c0.6-1.5,1.7-2.8,3-3.8c1.3-0.9,2.7-1.5,4.1-1.5c0.7,0,1.4,0.1,2.1,0.4l0.9-2.1c-1-0.4-1.9-0.6-2.9-0.6
		c-1.3,0-2.6,0.3-3.8,0.9c-1.8,0.8-3.3,2.2-4.5,3.9c-1.1,1.7-1.8,3.7-1.8,5.9c0,0.8,0.1,1.7,0.3,2.5c0.5,2.1,1.6,3.9,3.1,5.2
		c1.1,1,2.5,1.8,4,2.3c0.6,0.1,0.7,0.7,0.8,1.2c0.3,1.6,0.4,3.1,0.4,4.6c0,3-0.5,5.9-1.5,8.5c-1.4,3.9-3.6,7.2-6,9.6
		c-1.2,1.2-2.5,2.1-3.7,2.8c-1.2,0.7-2.4,1.1-3.4,1.3l-1,0.1l-0.3,0.9c-0.2,0.6-0.4,1.1-0.5,1.4h-20.2c0-0.2-0.1-0.4-0.1-0.6
		s0-0.4,0.1-0.7c0.1-0.2,0.1-0.3,0.3-0.5c0.2-0.3,0.5-0.5,1-0.8s1.2-0.6,2.2-0.8l1.7-0.4l-0.6-1.7c-0.3-0.9-0.6-1.7-0.7-2.3
		c-0.2-0.7-0.2-1.3-0.2-1.9s0.1-1.1,0.3-1.7c0.5-0.1,0.9-0.2,1.4-0.3c0.6-0.1,1.1-0.3,1.7-0.5c0.3-0.1,0.5-0.2,0.8-0.3
		c0.2-0.1,0.5-0.3,0.7-0.5c0.6-0.6,0.7-1.6,0.1-2.3c-0.6-0.6-1.6-0.7-2.2-0.1l0,0c0,0-0.1,0-0.1,0.1c-0.2,0.1-0.4,0.2-0.8,0.3
		c-0.5,0.1-1.2,0.3-1.9,0.4c-0.7,0.1-1.4,0.2-2.1,0.4l-5-0.1h-0.1l0,0c0,0-0.1,0-0.3-0.1c-0.2-0.1-0.5-0.3-0.7-0.4
		c-0.1-0.1-0.2-0.2-0.2-0.2l0,0c0-0.1,0-0.1,0-0.1c0-0.1,0-0.1,0.1-0.2s0.2-0.3,0.4-0.5c0.2-0.2,0.4-0.3,0.6-0.3l4-1.1
		c0.8-0.2,1.5-0.6,2-1.2l2.4-2.7l-0.5-3.6l-1.7,0.5c0,0-0.1,0-0.3,0c-0.1,0-0.3,0-0.5,0c-0.4,0-1,0-1.5-0.1c-0.5,0-1-0.1-1.4-0.1
		c-1.8,0-3.3-0.1-4.6-0.2c-1-0.1-1.8-0.2-2.5-0.3c-0.5-0.1-1-0.2-1.3-0.4c-0.6-0.2-1-0.5-1.3-0.9c-0.4-0.4-0.7-0.8-1-1.6
		c-0.3-0.6-0.3-1.1-0.3-1.4c0-0.3,0.1-0.5,0.2-0.7c0.1-0.1,0.2-0.3,0.3-0.4c0.2-0.2,0.3-0.3,0.5-0.4c0.1,0,0.1-0.1,0.2-0.1h0.1
		c0,0,0,0,0.1,0c0,0,0.1,0,0.1-0.1l0.1-0.1l0.1-0.1c0-0.1,0.1-0.1,0.2-0.2l0,0c0.8-1.2,1.5-2.4,2.3-3.6c1.1-1.8,2.3-3.5,3.7-4.7
		c0.7-0.6,1.5-1.2,2.3-1.6c0.9-0.4,1.8-0.7,3-0.9l1.3-0.2l0.1-1.3c0-0.1,0-0.2,0.1-0.3c0.1-0.2,0.2-0.6,0.4-0.9
		c0.3-0.5,0.8-1.1,1.3-1.5c0.2-0.2,0.5-0.3,0.7-0.4c0.2-0.1,0.3-0.1,0.4-0.1h0.1l0,0c0.4,0.1,0.7,0.2,0.9,0.3
		c0.1,0.1,0.2,0.2,0.3,0.3c0.1,0.1,0.2,0.3,0.3,0.6c0.1,0.3,0.1,0.6,0.1,1.1c0,0.7-0.1,1.5-0.3,2.5v0.2v0.2c0,0.3,0.1,0.4,0.1,0.5
		s0.1,0.2,0.1,0.2c0.1,0.1,0.1,0.2,0.1,0.2c0.1,0.1,0.1,0.1,0.2,0.2c0.1,0.1,0.2,0.2,0.3,0.3c0.2,0.2,0.4,0.4,0.6,0.6
		c0.3,0.3,0.7,0.7,1,1.1c0.2,0.2,0.3,0.3,0.4,0.5c0.1,0.1,0.2,0.3,0.2,0.3l0.1,0.2l0.2,0.2c1.1,1,2.3,2.2,3.3,3.1
		c0.5,0.5,0.9,0.9,1.2,1.1c0.1,0.1,0.3,0.3,0.3,0.3l0.1,0.1l0,0l0,0l0,0c0.6,0.5,1.3,0.8,2,0.8c0.5,0,1-0.1,1.4-0.4l0,0
		c1-0.5,1.6-1.6,1.6-2.7c0-0.1,0-0.2,0-0.3l0,0L130.2,39c0-0.3,0-3.4,0-4.5c0-5.1,2.1-9.7,5.4-13c3.3-3.3,7.9-5.4,13-5.4
		s9.7,2.1,13,5.4s5.4,7.9,5.4,13C166.6,39.8,164.9,44,162,47.2z"/>
	<circle class="st13" cx="107.8" cy="53" r="1.6"/>
</g>
<g>
	<text transform="matrix(1 0 0 1 45.2998 59.8379)" class="st14 st4 st8">Small Garden</text>
</g>
<g>
	<text transform="matrix(1 0 0 1 45.2998 59.8379)" class="st7 st4 st8">Small Garden</text>
</g>
</svg>
